<?xml version="1.0" encoding="iso-8859-1"?>
<!-- Generator: Adobe Illustrator 19.0.0, SVG Export Plug-In . SVG Version: 6.00 Build 0)  -->
<svg version="1.1" id="Layer_1" xmlns="http://www.w3.org/2000/svg" xmlns:xlink="http://www.w3.org/1999/xlink" x="0px" y="0px"
	 viewBox="0 0 512 512" style="enable-background:new 0 0 512 512;" xml:space="preserve">
<g>
	<g>
		<path d="M242.301,309.655v42.956h37.115c1.254-2.915,2.612-5.789,4.065-8.62c0.93-1.818,1.912-3.626,2.936-5.402v-2.602v-26.331
			H242.301z"/>
	</g>
</g>
<g>
	<g>
		<polygon points="317.764,235.342 317.764,278.309 336.687,278.309 357.679,278.309 362.057,278.309 362.057,276.773 
			362.057,267.4 362.057,235.342 		"/>
	</g>
</g>
<g>
	<g>
		<rect x="242.301" y="235.342" width="44.116" height="42.966"/>
	</g>
</g>
<g>
	<g>
		<rect x="166.828" y="235.342" width="44.126" height="42.966"/>
	</g>
</g>
<g>
	<g>
		<rect x="91.188" y="309.656" width="44.293" height="42.956"/>
	</g>
</g>
<g>
	<g>
		<rect x="166.828" y="309.656" width="44.126" height="42.956"/>
	</g>
</g>
<g>
	<g>
		<rect x="91.188" y="235.342" width="44.293" height="42.966"/>
	</g>
</g>
<g>
	<g>
		<path d="M436.757,155.585h-15.673H32.914H17.241H1.567v274.808h268.8c-0.533-3.009-0.961-6.05-1.285-9.112
			c-0.23-2.184-0.418-4.368-0.543-6.562c-0.157-2.717-0.24-5.433-0.24-8.119c0-2.529,0.073-5.047,0.209-7.555
			c0.282-5.078,0.846-10.115,1.682-15.088H59.841V203.995h333.563v58.567v7.805c3.845-0.334,7.722-0.502,11.63-0.502
			c10.825,0,21.452,1.243,31.723,3.688c5.329,1.243,10.564,2.821,15.673,4.713V155.585H436.757z"/>
	</g>
</g>
<g>
	<g>
		<polygon points="345.59,36.143 345.59,51.817 345.59,67.49 345.59,85.682 314.243,85.682 314.243,67.49 314.243,51.817 
			314.243,36.143 139.745,36.143 139.745,51.817 139.745,67.49 139.745,85.682 108.398,85.682 108.398,67.49 108.398,51.817 
			108.398,36.143 1.567,36.143 1.567,124.238 17.241,124.238 32.914,124.238 421.083,124.238 436.757,124.238 452.43,124.238 
			452.43,36.143 		"/>
	</g>
</g>
<g>
	<g>
		<polygon points="139.745,0 108.401,0 108.398,0 108.398,36.143 139.745,36.143 139.745,36.049 139.748,36.049 139.748,0 		"/>
	</g>
</g>
<g>
	<g>
		<polygon points="345.59,0 314.246,0 314.243,0 314.243,36.143 345.59,36.143 345.59,36.049 345.593,36.049 345.593,0 		"/>
	</g>
</g>
<g>
	<g>
		<path d="M405.034,301.213c-0.794,0-1.578,0.01-2.362,0.031c-0.178,0-0.345,0.01-0.512,0.01c-0.167,0.01-0.334,0.01-0.502,0.021
			c-0.376,0-0.752,0.021-1.128,0.031c-0.104,0-0.219,0.01-0.324,0.021c-0.24,0-0.47,0.021-0.711,0.031
			c-1.641,0.084-3.271,0.199-4.88,0.366c-0.857,0.084-1.714,0.178-2.57,0.282c-0.031,0-0.073,0.01-0.104,0.01
			c-0.815,0.104-1.62,0.209-2.435,0.334c-0.784,0.115-1.578,0.24-2.362,0.376c-0.052,0-0.104,0.01-0.157,0.031
			c-0.846,0.136-1.672,0.293-2.508,0.46c-1.661,0.324-3.312,0.69-4.942,1.097c-0.073,0.01-0.146,0.031-0.219,0.052
			c-1.306,0.334-2.612,0.679-3.897,1.066c-0.47,0.136-0.93,0.272-1.39,0.418c-0.031,0.01-0.073,0.021-0.104,0.031
			c-0.543,0.167-1.087,0.334-1.62,0.512c-0.616,0.199-1.243,0.408-1.86,0.627c-0.303,0.104-0.616,0.209-0.919,0.324
			c-0.575,0.199-1.139,0.408-1.714,0.627c-0.115,0.042-0.23,0.084-0.345,0.136c-0.073,0.031-0.157,0.052-0.23,0.084
			c-0.658,0.251-1.306,0.512-1.954,0.773c-0.554,0.219-1.097,0.449-1.641,0.69c-0.627,0.272-1.243,0.543-1.87,0.826
			c-0.345,0.157-0.7,0.313-1.055,0.481c-0.073,0.031-0.136,0.063-0.209,0.094c-0.366,0.167-0.721,0.345-1.087,0.512
			c-1.118,0.543-2.215,1.097-3.312,1.672c-0.021,0.01-0.042,0.021-0.063,0.031c-0.031,0.021-0.073,0.042-0.104,0.052
			c-0.042,0.021-0.084,0.042-0.125,0.073c-0.439,0.219-0.878,0.46-1.317,0.711c-0.46,0.251-0.909,0.502-1.358,0.752
			c-0.01,0.01-0.031,0.021-0.042,0.021l-0.094,0.052l-0.136,0.073l-0.104,0.063l-0.01,0.01l-0.01,0.01h-0.021
			c-0.01,0.01-0.031,0.021-0.042,0.031c-0.01,0.01-0.031,0.021-0.042,0.021c-0.042,0.031-0.084,0.052-0.115,0.073
			c-0.063,0.031-0.115,0.073-0.178,0.104c-0.46,0.261-0.909,0.533-1.369,0.805c-0.575,0.345-1.149,0.7-1.724,1.055
			c-0.575,0.355-1.139,0.721-1.703,1.087s-1.128,0.742-1.682,1.118c-0.554,0.376-1.097,0.752-1.641,1.139
			c-0.021,0.01-0.042,0.021-0.063,0.042c-0.533,0.376-1.066,0.763-1.588,1.149c-2.173,1.599-4.274,3.271-6.311,5.026
			c-0.24,0.199-0.481,0.408-0.711,0.617c-0.606,0.533-1.202,1.066-1.787,1.609c-0.104,0.094-0.199,0.188-0.303,0.282
			c-0.042,0.042-0.084,0.073-0.125,0.115c-0.387,0.355-0.773,0.711-1.149,1.087l-0.125,0.125c-0.282,0.251-0.554,0.522-0.826,0.794
			c-0.47,0.449-0.94,0.919-1.39,1.39c-0.209,0.209-0.408,0.408-0.585,0.606c-0.491,0.491-0.961,0.982-1.421,1.484
			c-0.512,0.554-1.024,1.118-1.526,1.682c-0.24,0.261-0.47,0.522-0.7,0.794c-0.418,0.481-0.836,0.961-1.243,1.452
			c-0.293,0.334-0.575,0.69-0.857,1.034c-0.293,0.345-0.564,0.7-0.846,1.045c-0.23,0.272-0.439,0.554-0.658,0.825
			c-0.01,0.021-0.031,0.031-0.042,0.052c-0.042,0.052-0.073,0.094-0.115,0.146c-0.24,0.303-0.481,0.617-0.711,0.93
			c-0.24,0.313-0.47,0.627-0.711,0.94c-0.021,0.031-0.042,0.063-0.073,0.094c-0.449,0.606-0.888,1.212-1.327,1.829
			c-0.428,0.606-0.857,1.223-1.275,1.839c-0.199,0.293-0.397,0.585-0.596,0.888c-0.408,0.606-0.815,1.223-1.202,1.849
			c-0.408,0.627-0.805,1.264-1.191,1.912c-0.031,0.042-0.052,0.094-0.084,0.136c-0.219,0.366-0.439,0.742-0.658,1.118
			c-0.021,0.042-0.042,0.073-0.063,0.115c-0.125,0.198-0.24,0.407-0.345,0.606c-0.324,0.543-0.627,1.087-0.919,1.63
			c-0.052,0.084-0.094,0.157-0.136,0.24v0.01c-0.178,0.313-0.355,0.627-0.512,0.94c-0.261,0.46-0.502,0.919-0.731,1.39
			c-0.481,0.94-0.951,1.881-1.4,2.821c-0.23,0.481-0.46,0.951-0.679,1.432c-0.261,0.575-0.512,1.139-0.763,1.714
			c-0.178,0.387-0.345,0.784-0.512,1.181c-0.209,0.481-0.408,0.972-0.606,1.463c-0.199,0.491-0.397,0.982-0.585,1.473
			c-0.387,0.982-0.752,1.964-1.097,2.957c-0.408,1.128-0.784,2.267-1.149,3.406c-0.01,0.042-0.021,0.073-0.031,0.115
			c-0.115,0.345-0.219,0.7-0.324,1.045c-0.47,1.536-0.899,3.082-1.296,4.639c-0.052,0.209-0.104,0.428-0.157,0.637
			c-0.021,0.052-0.031,0.094-0.042,0.146c-0.021,0.073-0.031,0.146-0.052,0.219c-0.167,0.669-0.324,1.337-0.47,2.017
			c-0.178,0.794-0.345,1.588-0.502,2.393c-0.063,0.303-0.125,0.596-0.178,0.899c-0.146,0.763-0.282,1.536-0.408,2.309
			c-0.125,0.742-0.24,1.484-0.345,2.226c-0.01,0.052-0.01,0.104-0.021,0.157c-0.01,0.042-0.021,0.084-0.021,0.125
			c-0.052,0.345-0.094,0.679-0.136,1.024c-0.01,0.042-0.01,0.073-0.021,0.115c-0.052,0.397-0.104,0.773-0.136,1.17
			c-0.01,0.021-0.01,0.031-0.01,0.052c-0.073,0.543-0.125,1.087-0.178,1.63c0,0.031-0.01,0.063-0.01,0.094
			c-0.073,0.669-0.136,1.337-0.188,2.006c-0.063,0.7-0.115,1.4-0.157,2.111c-0.01,0.104-0.01,0.209-0.021,0.313
			c-0.021,0.293-0.031,0.596-0.052,0.899c-0.042,0.826-0.073,1.661-0.094,2.497v0.199c0,0.094-0.01,0.199-0.01,0.293
			c-0.021,0.825-0.031,1.641-0.031,2.476c0,3.835,0.209,7.617,0.606,11.337c0.073,0.679,0.146,1.358,0.24,2.038
			c0.042,0.355,0.084,0.721,0.136,1.066c0.01,0.073,0.021,0.136,0.031,0.209c0.01,0.094,0.021,0.188,0.042,0.282
			c0.052,0.387,0.104,0.763,0.167,1.139c0.073,0.512,0.157,1.034,0.251,1.557c0.052,0.366,0.115,0.721,0.188,1.087l0.031,0.188
			c0.104,0.554,0.199,1.097,0.313,1.651c0.115,0.606,0.24,1.202,0.376,1.808c0,0.01,0,0.01,0.01,0.021
			c0.094,0.47,0.199,0.94,0.313,1.411c0.146,0.617,0.293,1.243,0.449,1.86c0.073,0.313,0.157,0.617,0.23,0.92
			c0.084,0.313,0.157,0.616,0.24,0.919c0.167,0.616,0.334,1.223,0.512,1.829c0.084,0.282,0.167,0.564,0.251,0.846
			c0.042,0.146,0.084,0.293,0.125,0.428c0.272,0.899,0.554,1.787,0.857,2.675c0.125,0.387,0.251,0.763,0.387,1.149
			c0.01,0.042,0.031,0.094,0.042,0.136c0.052,0.157,0.105,0.303,0.167,0.46c0.146,0.439,0.303,0.878,0.47,1.317
			c0.021,0.052,0.042,0.115,0.063,0.178c0.199,0.533,0.397,1.066,0.606,1.588c0.272,0.7,0.554,1.4,0.836,2.1
			c0.293,0.7,0.585,1.39,0.888,2.079c0.282,0.669,0.575,1.327,0.878,1.975c0.031,0.052,0.052,0.094,0.073,0.146
			c0.303,0.658,0.617,1.317,0.94,1.964c0.658,1.348,1.348,2.675,2.069,3.992c0.345,0.648,0.711,1.296,1.076,1.933
			c0.01,0.021,0.031,0.052,0.042,0.073c0.01,0.01,0.01,0.021,0.021,0.031c0.031,0.063,0.073,0.125,0.104,0.188
			c0.324,0.554,0.648,1.108,0.982,1.661c0.763,1.275,1.557,2.539,2.382,3.783c0.815,1.243,1.672,2.466,2.539,3.668
			c0.867,1.202,1.766,2.393,2.685,3.553c0.46,0.585,0.93,1.16,1.4,1.735c0.408,0.491,0.805,0.972,1.212,1.452
			c0.073,0.084,0.146,0.167,0.219,0.251c0.972,1.128,1.964,2.236,2.978,3.312c0.502,0.543,1.014,1.076,1.536,1.609
			c0.512,0.533,1.034,1.055,1.567,1.578C350.198,500.475,376.268,512,405.034,512c58.211,0,105.399-47.188,105.399-105.399
			C510.433,348.39,463.245,301.213,405.034,301.213z M460.497,423.299L460.497,423.299h-39.79v41.859H389.36v-41.859h-39.79v-31.347
			h39.79v-41.848h31.347v41.848h39.79V423.299z"/>
	</g>
</g>
<g>
</g>
<g>
</g>
<g>
</g>
<g>
</g>
<g>
</g>
<g>
</g>
<g>
</g>
<g>
</g>
<g>
</g>
<g>
</g>
<g>
</g>
<g>
</g>
<g>
</g>
<g>
</g>
<g>
</g>
</svg>
