<?xml version="1.0" standalone="no"?>
<!DOCTYPE svg PUBLIC "-//W3C//DTD SVG 20010904//EN"
 "http://www.w3.org/TR/2001/REC-SVG-20010904/DTD/svg10.dtd">
<svg version="1.0" xmlns="http://www.w3.org/2000/svg"
 width="512.000000pt" height="512.000000pt" viewBox="0 0 512.000000 512.000000"
 preserveAspectRatio="xMidYMid meet">

<g transform="translate(0.000000,512.000000) scale(0.100000,-0.100000)"
stroke="none">
<path d="M2271 4864 c-253 -32 -493 -105 -726 -218 -800 -392 -1305 -1196
-1305 -2081 0 -368 74 -692 235 -1020 347 -712 1031 -1199 1812 -1290 445 -52
885 23 1288 220 712 347 1199 1031 1290 1812 83 707 -162 1412 -665 1913 -369
369 -844 601 -1360 665 -150 18 -423 18 -569 -1z m504 -70 c117 -9 283 -41
410 -78 784 -229 1378 -858 1564 -1656 78 -334 71 -729 -18 -1073 -72 -275
-228 -591 -400 -807 -195 -245 -448 -458 -711 -598 -90 -48 -97 -50 -141 -42
-117 22 -210 79 -254 154 -39 67 -54 120 -84 294 l-28 163 66 44 c204 136 373
336 500 595 32 63 70 152 86 197 27 74 32 83 60 89 76 16 152 80 195 163 49
97 65 254 34 344 -19 55 -76 111 -132 128 l-39 11 -6 157 c-10 249 -44 453
-109 651 -147 447 -425 711 -848 801 -88 19 -136 23 -305 23 -217 1 -279 -7
-430 -56 -327 -106 -595 -380 -736 -753 -82 -218 -129 -470 -129 -698 l0 -122
-60 -18 c-63 -18 -130 -69 -155 -116 -24 -47 -27 -112 -10 -196 39 -196 142
-307 293 -318 33 -2 34 -4 73 -107 95 -252 216 -454 367 -611 l92 -96 0 -74
c0 -41 -5 -102 -10 -137 -11 -67 -33 -95 -182 -242 -82 -80 -244 -160 -325
-160 -30 0 -170 94 -294 198 -445 374 -748 960 -784 1516 -3 44 -7 108 -9 141
-6 91 11 316 33 445 159 923 898 1661 1824 1821 200 35 376 41 602 23z m89
-509 c223 -34 401 -121 551 -270 139 -138 219 -272 289 -486 72 -222 106 -450
106 -720 l0 -149 45 0 c82 0 118 -31 135 -119 20 -108 -33 -282 -101 -333 -39
-29 -90 -48 -128 -48 -24 0 -28 -8 -61 -108 -45 -139 -151 -353 -232 -466
-299 -421 -747 -589 -1181 -442 -130 45 -240 113 -353 219 -181 171 -318 395
-425 697 -25 71 -42 104 -51 101 -7 -2 -38 -6 -68 -8 -44 -3 -63 1 -95 19 -75
44 -124 147 -132 278 -7 124 33 174 156 193 l71 11 0 106 c0 555 189 1048 498
1299 142 116 316 193 506 225 111 19 349 19 470 1z m-709 -3170 c113 -55 210
-82 343 -95 161 -17 349 11 489 71 25 10 48 17 52 14 5 -2 14 -45 20 -94 7
-49 20 -121 30 -160 l18 -72 -68 -63 c-146 -138 -338 -237 -514 -266 -57 -9
-61 -8 -125 26 -162 89 -351 259 -418 376 -30 53 -31 55 -16 97 8 24 20 90 26
147 l11 104 31 -21 c17 -11 72 -40 121 -64z m-220 -262 c31 -59 126 -173 191
-231 113 -101 288 -208 474 -290 l25 -11 -30 -2 c-152 -9 -443 22 -571 62 -55
17 -130 131 -159 239 -8 30 -15 88 -15 128 0 64 3 78 26 108 15 19 29 34 33
34 4 0 15 -17 26 -37z m-109 -197 c16 -84 55 -172 99 -225 15 -17 25 -31 22
-31 -2 0 -40 12 -83 26 -56 18 -90 36 -117 62 -42 40 -97 127 -97 153 0 9 31
40 70 68 38 29 73 57 77 64 5 8 9 3 11 -13 1 -14 10 -61 18 -104z m1316 42
c44 -92 109 -150 213 -193 l57 -23 -81 -31 c-115 -44 -293 -89 -445 -111
l-129 -19 -105 39 c-58 22 -107 40 -109 40 -2 0 -3 5 -3 10 0 6 9 10 19 10 36
0 185 52 256 89 69 36 183 117 260 185 22 19 43 35 46 36 3 0 12 -15 21 -32z
m-1505 -133 l31 -65 -31 14 c-18 7 -58 26 -91 43 l-58 29 53 22 c30 11 56 21
59 21 3 0 19 -29 37 -64z"/>
<path d="M2395 3563 c3 -59 7 -170 10 -246 11 -296 64 -413 188 -411 137 1
166 83 174 492 5 254 5 264 -13 260 -18 -3 -19 -20 -25 -283 -5 -259 -7 -284
-28 -337 -27 -69 -60 -98 -112 -98 -69 0 -109 54 -135 180 -3 19 -12 149 -18
290 -10 228 -13 255 -28 258 -16 3 -17 -6 -13 -105z"/>
<path d="M2570 3360 c0 -260 2 -300 15 -300 13 0 15 40 15 300 0 260 -2 300
-15 300 -13 0 -15 -40 -15 -300z"/>
<path d="M3030 2755 c-64 -18 -133 -57 -173 -97 -23 -23 -26 -31 -17 -48 15
-28 46 -25 89 9 53 41 89 58 159 71 82 17 184 1 270 -41 72 -35 97 -35 97 1 0
78 -277 146 -425 105z"/>
<path d="M1953 2725 c-76 -17 -140 -44 -199 -87 -36 -26 -44 -37 -42 -58 4
-35 40 -38 86 -6 87 59 212 93 310 83 36 -4 82 -19 125 -41 68 -35 91 -37 101
-10 9 24 -3 39 -57 72 -97 58 -202 74 -324 47z"/>
<path d="M3807 2509 c-9 -5 -26 -27 -37 -49 -18 -35 -18 -39 -3 -52 13 -10 17
-10 21 0 6 20 53 72 63 72 6 0 21 -11 35 -25 20 -20 24 -32 19 -54 -4 -17 -2
-32 5 -36 20 -12 40 16 40 57 0 73 -82 123 -143 87z"/>
<path d="M1294 2494 c-60 -29 -78 -97 -41 -149 12 -16 18 -17 30 -7 12 10 13
18 4 42 -15 39 1 84 30 88 13 2 35 -10 58 -29 25 -22 39 -29 46 -22 16 16 -15
58 -56 77 -39 19 -33 19 -71 0z"/>
<path d="M2060 2503 c-51 -19 -68 -85 -30 -123 45 -45 120 -11 120 53 0 47
-49 85 -90 70z"/>
<path d="M3020 2503 c-51 -19 -68 -85 -30 -123 45 -45 120 -11 120 53 0 47
-49 85 -90 70z"/>
<path d="M2333 1634 c-18 -48 47 -143 124 -181 49 -24 70 -28 138 -28 96 0
150 25 202 93 30 40 52 106 39 119 -3 3 -29 -1 -58 -10 -110 -33 -293 -29
-400 7 -34 12 -40 12 -45 0z m219 -61 c82 -4 143 -2 173 6 26 7 50 9 53 6 11
-11 -24 -59 -62 -84 -31 -20 -54 -27 -112 -29 -109 -6 -183 27 -220 99 l-14
29 27 -11 c16 -6 85 -13 155 -16z"/>
</g>
</svg>
