<?xml version="1.0" encoding="iso-8859-1"?>
<!-- Generator: Adobe Illustrator 19.0.0, SVG Export Plug-In . SVG Version: 6.00 Build 0)  -->
<svg version="1.1" id="Capa_1" xmlns="http://www.w3.org/2000/svg" xmlns:xlink="http://www.w3.org/1999/xlink" x="0px" y="0px"
	 viewBox="0 0 368 368" style="enable-background:new 0 0 368 368;" xml:space="preserve">
<g>
	<g>
		<path d="M344,96h-72V56c0-13.232-10.768-24-24-24H120c-13.232,0-24,10.768-24,24v40H24c-13.232,0-24,10.768-24,24v192
			c0,13.232,10.768,24,24,24h320c13.232,0,24-10.768,24-24V120C368,106.768,357.232,96,344,96z M112,56c0-4.416,3.584-8,8-8h128
			c4.408,0,8,3.584,8,8v40H112V56z M352,312c0,4.416-3.592,8-8,8H24c-4.408,0-8-3.584-8-8v-98.848C29.208,229.504,49.392,240,72,240
			h72v24c0,4.424,3.584,8,8,8h64c4.416,0,8-3.576,8-8v-24h72c22.608,0,42.792-10.496,56-26.848V312z M160,256v-48h48v48H160z
			 M352,168c0,30.872-25.12,56-56,56h-72v-24c0-4.424-3.584-8-8-8h-64c-4.416,0-8,3.576-8,8v24H72c-30.88,0-56-25.128-56-56v-48
			c0-4.416,3.592-8,8-8h320c4.408,0,8,3.584,8,8V168z"/>
	</g>
</g>
<g>
</g>
<g>
</g>
<g>
</g>
<g>
</g>
<g>
</g>
<g>
</g>
<g>
</g>
<g>
</g>
<g>
</g>
<g>
</g>
<g>
</g>
<g>
</g>
<g>
</g>
<g>
</g>
<g>
</g>
</svg>
