<?xml version="1.0" encoding="iso-8859-1"?>
<!-- Generator: Adobe Illustrator 19.0.0, SVG Export Plug-In . SVG Version: 6.00 Build 0)  -->
<svg version="1.1" id="Layer_1" xmlns="http://www.w3.org/2000/svg" xmlns:xlink="http://www.w3.org/1999/xlink" x="0px" y="0px"
	 viewBox="0 0 512.001 512.001" style="enable-background:new 0 0 512.001 512.001;" xml:space="preserve">
<path style="fill:#FFDB6C;" d="M180.118,276.642c-11.712-13.254-18.801-27.562-22.17-44.088
	c-4.766-23.374,1.459-43.191,3.832-49.822c11.05-30.867,32.87-39.121,56.635-66.004c13.068-14.782,29.634-38.488,40.886-75.763
	c0.687-2.275,3.261-3.413,5.4-2.376c11.9,5.773,20.28,12.21,25.569,16.822c46.148,40.24,44.169,104.766,38.435,119.231
	c-0.369,0.93-6.173,15.327-6.174,15.33l0,0l32.278-46.032c1.858-2.65,5.948-2.016,6.904,1.077
	c6.907,22.365,16.744,68.498-6.181,110.534c-4.091,7.501-8.808,15.284-13.825,21.093"/>
<path style="fill:#FA6657;" d="M314.366,195.916c-0.912-3.397-5.391-4.166-7.409-1.286l-11.61,16.556
	c-0.744,1.065-1.355-0.312-1.021-2.279c1.493-8.781,4.415-45.22-22.002-68.255c-2.817-2.457-7.165-5.816-13.244-8.935
	c-1.918-0.984-4.266-0.011-4.909,2.045c-6.428,20.546-15.663,33.713-22.981,41.991c-13.605,15.39-26.095,20.115-32.422,37.785
	c-1.359,3.797-4.922,15.141-2.193,28.521c0.254,1.249,0.552,2.472,0.881,3.678c6.642,26.996,28.432,48.257,53.232,48.348
	c40.014,0.146,55.5-32.662,58.996-38.863C325.887,226.485,315.191,198.987,314.366,195.916z"/>
<g>
	<path style="fill:#D65A4D;" d="M503.773,473.799H8.227c-4.544,0-8.227-3.683-8.227-8.227v-38.151c0-10.681,8.659-19.34,19.34-19.34
		h473.321c10.681,0,19.34,8.659,19.34,19.34v38.151C512,470.115,508.317,473.799,503.773,473.799z"/>
	<path style="fill:#D65A4D;" d="M460.421,420.855H51.579V361.7c0-10.681,8.659-19.34,19.34-19.34h370.163
		c10.681,0,19.34,8.659,19.34,19.34v59.154H460.421z"/>
	<path style="fill:#D65A4D;" d="M414.441,355.137H97.559v-59.154c0-10.681,8.659-19.34,19.34-19.34h278.203
		c10.681,0,19.34,8.659,19.34,19.34L414.441,355.137L414.441,355.137z"/>
</g>
<g>
	<rect x="51.573" y="381.256" style="fill:#953A3C;" width="408.799" height="26.827"/>
	<path style="fill:#953A3C;" d="M8.227,473.799h495.546c4.544,0,8.227-3.683,8.227-8.227v-18.6H0v18.6
		C0,470.115,3.683,473.799,8.227,473.799z"/>
	<rect x="97.562" y="315.529" style="fill:#953A3C;" width="316.819" height="26.827"/>
</g>
<g>
</g>
<g>
</g>
<g>
</g>
<g>
</g>
<g>
</g>
<g>
</g>
<g>
</g>
<g>
</g>
<g>
</g>
<g>
</g>
<g>
</g>
<g>
</g>
<g>
</g>
<g>
</g>
<g>
</g>
</svg>
