<?xml version="1.0" encoding="iso-8859-1"?>
<!-- Generator: Adobe Illustrator 19.0.0, SVG Export Plug-In . SVG Version: 6.00 Build 0)  -->
<svg version="1.1" id="Layer_1" xmlns="http://www.w3.org/2000/svg" xmlns:xlink="http://www.w3.org/1999/xlink" x="0px" y="0px"
	 viewBox="0 0 511.999 511.999" style="enable-background:new 0 0 511.999 511.999;" xml:space="preserve">
<path style="fill:#FFDB6C;" d="M349.106,194.773c0,51.421-41.685,93.107-93.107,93.107s-93.107-41.685-93.107-93.107
	c0-46.56,76.334-170.465,90.767-193.477c1.084-1.729,3.594-1.729,4.679,0C272.771,24.308,349.106,148.212,349.106,194.773z"/>
<path style="fill:#FF705B;" d="M316.936,226.942c0,33.654-27.282,60.937-60.937,60.937s-60.936-27.283-60.936-60.937
	c0-29.684,47.407-107.404,58.593-125.328c1.084-1.737,3.604-1.737,4.688,0C269.529,119.538,316.936,197.258,316.936,226.942z"/>
<path style="fill:#F44A46;" d="M288.975,254.904c0,18.212-14.764,32.975-32.975,32.975c-18.211,0-32.975-14.764-32.975-32.975
	c0-15.238,23.086-53.869,30.625-66.077c1.082-1.751,3.619-1.751,4.7,0C265.887,201.035,288.975,239.666,288.975,254.904z"/>
<path style="fill:#634E9B;" d="M350.17,475.304H159.919c-18.203,0-33.31,13.254-36.197,30.638c-0.527,3.174,1.96,6.056,5.178,6.056
	h252.29c3.218,0,5.705-2.883,5.178-6.056C383.48,488.559,368.373,475.304,350.17,475.304z"/>
<path style="fill:#4C3A7A;" d="M350.17,475.304h-46.856c20.266,0,36.695,16.429,36.695,36.695h41.181
	c3.218,0,5.705-2.883,5.178-6.056C383.48,488.559,368.373,475.304,350.17,475.304z"/>
<path style="fill:#F1709F;" d="M160.951,475.304h190.096c63.062-32.343,107.779-95.613,114.207-169.11
	c0.863-9.861-6.997-18.316-16.897-18.316H63.641c-9.899,0-17.758,8.454-16.897,18.316
	C53.173,379.691,97.889,442.962,160.951,475.304z"/>
<path style="fill:#ED589C;" d="M448.358,287.878h-60.23c9.899,0,17.758,8.454,16.895,18.316
	c-6.428,73.496-51.145,136.767-114.207,169.11h60.23c63.062-32.343,107.779-95.614,114.207-169.11
	C466.116,296.333,458.256,287.878,448.358,287.878z"/>
<path style="fill:#FFDB6C;" d="M372.451,345.381c-28.287,0-51.845,19.955-57.11,47.699c-0.103,0.54-0.567,0.933-1.116,0.933l0,0
	c-0.549,0-1.013-0.393-1.116-0.933c-5.265-27.739-28.823-47.558-57.11-47.558s-51.845,19.817-57.11,47.558
	c-0.103,0.54-0.567,0.933-1.116,0.933l0,0c-0.549,0-1.013-0.393-1.116-0.933c-5.265-27.742-28.823-47.699-57.11-47.699
	c-32.144,0-58.201,26.341-58.224,58.931c19.983,29.918,47.398,54.465,79.624,70.993H351.05
	c32.226-16.527,59.641-41.074,79.624-70.993C430.653,371.722,404.594,345.381,372.451,345.381z"/>
<path style="fill:#FFB04C;" d="M379.207,457.944c15.952-11.65,30.212-25.481,42.34-41.035c3.21-4.102,6.234-8.339,9.125-12.669
	c-0.044-23.976-14.188-44.546-34.466-53.73c-17.018,54.141-55.437,99.175-105.391,124.795h60.23c1.971-1.012,3.933-2.056,5.871-3.13
	c1.47-0.814-0.496,0.274,0,0C364.633,467.904,372.084,463.142,379.207,457.944z"/>
<g>
	<circle style="fill:#634E9B;" cx="137.7" cy="391.076" r="9.485"/>
	<circle style="fill:#634E9B;" cx="256.005" cy="391.076" r="9.485"/>
	<circle style="fill:#634E9B;" cx="372.242" cy="391.076" r="9.485"/>
</g>
<g>
</g>
<g>
</g>
<g>
</g>
<g>
</g>
<g>
</g>
<g>
</g>
<g>
</g>
<g>
</g>
<g>
</g>
<g>
</g>
<g>
</g>
<g>
</g>
<g>
</g>
<g>
</g>
<g>
</g>
</svg>
