<svg viewBox="0 1 511 511.99965" xmlns="http://www.w3.org/2000/svg"><path d="m302.496094 412c5.519531 0 10-4.480469 10-10s-4.480469-10-10-10c-5.519532 0-10 4.480469-10 10s4.480468 10 10 10zm0 0"/><path d="m60.5 292.003906c-11.050781 0-20 8.949219-20 20 0 11.050782 8.949219 20 20 20 11.046875 0 20-8.949218 20-20 0-11.050781-8.953125-20-20-20zm0 0"/><path d="m462.492188 112.007812h-27.4375c15.253906-15.253906-26.316407 26.320313 43.714843-43.714843 15.628907-15.621094 15.648438-40.933594.007813-56.5625-15.621094-15.632813-40.933594-15.648438-56.5625-.003907-11.867188 11.863282-88.957032 88.949219-100.289063 100.28125h-271.425781c-27.570312 0-50 22.429688-50 49.996094v299.996094c0 27.570312 22.429688 50 50 50h411.992188c27.570312 0 50-22.429688 50-50v-299.996094c0-27.570312-22.429688-49.996094-50-49.996094zm-228.488282 120.6875c1.464844-4.398437 3.96875-8.457031 7.238282-11.722656l.398437-.402344 28.289063 28.289063-.394532.394531c-3.277344 3.273438-7.332031 5.777344-11.734375 7.242188l-35.703125 11.90625zm-6.898437-25.871093c-5.460938 5.460937-9.636719 12.21875-12.074219 19.546875l-17.425781 52.265625-12.925781 12.054687c-4.042969 3.765625-4.261719 10.09375-.496094 14.132813 3.765625 4.035156 10.09375 4.257812 14.132812.492187l13.199219-12.304687 52.609375-17.539063c7.328125-2.4375 14.089844-6.613281 19.558594-12.082031l71.382812-71.386719h77.429688v239.996094h-311.996094v-239.996094h121.425781zm56.960937 27.886719-28.28125-28.28125 152.28125-152.277344 28.277344 28.28125zm152.289063-208.84375c7.710937-7.714844 20.367187-7.914063 28.277343.003906 7.816407 7.808594 7.824219 20.457031-.003906 28.277344l-14.140625 14.140624-28.277343-28.277343zm56.136719 436.132812c0 16.542969-13.457032 30-30 30h-411.992188c-16.542969 0-30-13.457031-30-30v-299.996094c0-16.539062 13.457031-29.996094 30-29.996094h251.425781l-40 39.996094h-151.429687c-5.519532 0-9.996094 4.480469-9.996094 10v259.996094c0 5.523438 4.476562 10 9.996094 10h331.996094c5.523437 0 10-4.476562 10-10v-259.996094c0-5.519531-4.476563-10-10-10h-67.433594l40-39.996094h47.433594c16.542968 0 30 13.457032 30 29.996094zm0 0"/><path d="m342.492188 412h60c5.523437 0 10-4.476562 10-10v-79.996094c0-5.523437-4.476563-10-10-10-5.519532 0-10 4.476563-10 10v69.996094h-50c-5.519532 0-10 4.480469-10 10 0 5.523438 4.480468 10 10 10zm0 0"/><path d="m60.5 272.003906c5.519531 0 10-4.476562 10-10v-40c0-5.523437-4.480469-10-10-10-5.523438 0-10 4.476563-10 10v40c0 5.523438 4.476562 10 10 10zm0 0"/><path d="m60.5 352.003906c-5.523438 0-10 4.476563-10 10v39.996094c0 5.523438 4.476562 10 10 10 5.519531 0 10-4.476562 10-10v-39.996094c0-5.523437-4.476562-10-10-10zm0 0"/></svg>