<?xml version="1.0" encoding="iso-8859-1"?>
<!-- Generator: Adobe Illustrator 18.1.1, SVG Export Plug-In . SVG Version: 6.00 Build 0)  -->
<svg version="1.1" id="Capa_1" xmlns="http://www.w3.org/2000/svg" xmlns:xlink="http://www.w3.org/1999/xlink" x="0px" y="0px"
	 viewBox="0 0 52.698 52.698" xml:space="preserve">
<g>
	<path d="M5.562,19.436c0-2.121,1.719-3.84,3.84-3.84s3.84,1.719,3.84,3.84s-1.719,3.84-3.84,3.84
		S5.562,21.557,5.562,19.436z M21.457,22.302c-3.18,0.43-6.305,0.957-9.243,2.307c-0.262,0.121-0.466,0.276-0.624,0.454
		c-0.774-0.088-1.569,0.102-2.149,0.577c-0.226-0.002-0.466,0.037-0.721,0.141c-3.079,1.248-5.935,2.975-8.225,5.404
		c-1.636,1.736,1.169,4.129,2.793,2.404c1.522-1.613,3.396-2.816,5.394-3.759c0.089,1.968,0.178,3.936,0.268,5.904
		c-0.021,0.028-0.045,0.049-0.065,0.079c-2.932,4.42-3.505,9.08-0.308,13.531c1.373,1.912,4.573,0.074,3.183-1.861
		c-2.107-2.931-2.038-5.506-0.584-8.303c0.376,0.084,0.765,0.104,1.142,0.052c2.127,3.142,4.48,6.112,7.201,8.771
		c1.706,1.666,4.082-1.154,2.392-2.807c-2.861-2.795-5.256-5.987-7.427-9.339c-0.122-2.685-0.243-5.37-0.365-8.054
		c2.545-1.104,5.245-1.502,7.982-1.873C24.46,25.613,23.807,21.984,21.457,22.302z M49.537,29.694
		c-0.044-0.385-0.159-0.72-0.313-1.021c-0.068-0.487-0.211-0.976-0.429-1.444c-1.207-2.597-2.313-5.229-3.339-7.896
		c0.935,0.582,1.789,1.315,2.587,2.195c2.398,2.648,6.295-1.274,3.909-3.909c-2.321-2.564-5.426-4.544-8.898-5.012
		c-0.37-0.05-0.738-0.054-1.09-0.008c-1.536-0.826-3.529-0.552-4.777,0.506c-4.3,2.003-8.227,4.689-12.445,6.845
		c-3.174,1.623-0.067,6.202,3.07,4.598c3.169-1.62,6.152-3.608,9.299-5.274c1.337,3.689,2.834,7.318,4.464,10.888
		c-4.181,4.28-6.306,9.703-8.448,15.464c-1.245,3.348,4.1,4.779,5.33,1.469c1.6-4.298,3.142-8.811,6.163-12.259
		c0.522,4.27,1.103,8.53,1.868,12.765c0.632,3.506,5.96,2.016,5.329-1.469C50.834,40.683,50.172,35.194,49.537,29.694z
		 M36.857,11.746c2.541,0,4.6-2.06,4.6-4.6s-2.059-4.6-4.6-4.6s-4.6,2.06-4.6,4.6S34.316,11.746,36.857,11.746z"/>
</g>
<g>
</g>
<g>
</g>
<g>
</g>
<g>
</g>
<g>
</g>
<g>
</g>
<g>
</g>
<g>
</g>
<g>
</g>
<g>
</g>
<g>
</g>
<g>
</g>
<g>
</g>
<g>
</g>
<g>
</g>
</svg>
