<?xml version="1.0" encoding="iso-8859-1"?>
<!-- Generator: Adobe Illustrator 19.0.0, SVG Export Plug-In . SVG Version: 6.00 Build 0)  -->
<svg version="1.1" id="Layer_1" xmlns="http://www.w3.org/2000/svg" xmlns:xlink="http://www.w3.org/1999/xlink" x="0px" y="0px"
	 viewBox="0 0 511.999 511.999" style="enable-background:new 0 0 511.999 511.999;" xml:space="preserve">
<g>
	<g>
		<path d="M342.812,450.267c39.04-24.781,62.535-64.777,62.535-108.506c0-34.716-14.896-67.598-41.942-92.589
			c-0.027-0.025-0.055-0.051-0.083-0.075c-9.131-8.207-17.007-17.698-23.212-27.89h0.962c11.524,0,20.973-8.958,21.805-20.274
			c16.342-11.764,28.187-26.898,34.374-44.001c1.392-3.847,1.001-8.11-1.074-11.696c-2.386-4.126-6.699-7.012-11.831-7.917
			c-11.5-2.032-23.166-2.645-34.661-1.927c-1.992-11.531-6.64-22.804-13.661-33.006c-4.775-6.937-14.836-9.279-22.906-5.333
			c-7.004,3.426-13.497,7.408-19.425,11.879c-5.545-12.396-14.306-23.814-25.942-33.538c-6.589-5.506-16.912-5.506-23.5,0
			c-11.828,9.883-20.689,21.515-26.217,34.149c-6.14-4.72-12.901-8.906-20.228-12.49c-0.372-0.182-0.752-0.336-1.131-0.491
			c7.082-27.508,22.646-53.438,45.373-75.449c6.818-6.599,20.707-6.6,27.522,0c13.868,13.43,25.091,28.305,33.36,44.211
			c2.057,3.96,6.935,5.499,10.895,3.443c3.959-2.059,5.5-6.936,3.443-10.895c-9.072-17.453-21.338-33.725-36.457-48.367
			c-13.084-12.671-36.917-12.672-50.003,0c-26.323,25.491-43.899,55.949-51.039,88.325c-1.908,1.168-3.584,2.689-4.868,4.555
			c-7.021,10.201-11.669,21.474-13.661,33.006c-11.495-0.717-23.16-0.104-34.661,1.927c-5.133,0.907-9.446,3.793-11.832,7.917
			c-2.075,3.586-2.466,7.85-1.074,11.696c2.64,7.296,6.361,14.323,11.06,20.883c1.578,2.203,4.058,3.376,6.575,3.375
			c1.629,0,3.273-0.491,4.698-1.511c3.627-2.598,4.462-7.645,1.864-11.273c-3.452-4.821-6.25-9.927-8.332-15.203
			c25.827-4.533,52.539-1.173,75.231,9.466c4.143,1.942,8.105,4.127,11.837,6.487c1.074,2.803,2.314,5.563,3.708,8.275h-45.176
			c-12.069,0-21.887,9.819-21.887,21.887c0,11.031,8.209,20.156,18.835,21.649c-5.561,9.288-12.513,17.969-20.5,25.524
			c-28.977,25.304-44.931,59.117-44.931,95.235c0,43.73,23.501,83.743,62.546,108.534c-16.5,8.062-27.895,25.014-27.895,44.58v9.081
			c0,4.462,3.617,8.079,8.079,8.079h213.238c4.462,0,8.079-3.617,8.079-8.079v-9.081
			C370.697,475.28,359.306,458.331,342.812,450.267z M211.675,148.066c-0.018-0.009-0.034-0.017-0.053-0.026
			c-10.783-5.054-22.357-8.639-34.306-10.742c1.666-8.907,5.339-17.656,10.823-25.652c0.1-0.071,0.251-0.137,0.433-0.192
			c0.12-0.027,0.24-0.049,0.359-0.082c0.544-0.092,1.228-0.072,1.774,0.194c8.276,4.048,15.688,8.952,22.114,14.594
			c-0.964,4.911-1.464,9.912-1.464,14.971C211.354,143.452,211.467,145.765,211.675,148.066z M320.216,111.568
			c0.888-0.434,2.149-0.214,2.565,0.079c5.484,7.995,9.156,16.744,10.823,25.652c-11.546,2.033-22.734,5.464-33.205,10.254
			c0.158-2.118,0.243-4.256,0.243-6.42c0-5.332-0.548-10.602-1.618-15.767C305.238,120.057,312.34,115.42,320.216,111.568z
			 M296.131,168.032c3.193-1.928,6.549-3.733,10.026-5.361c22.691-10.637,49.404-13.998,75.231-9.466
			c-4.698,11.919-12.902,22.69-23.986,31.592c-4.012-4.506-9.836-7.365-16.329-7.365H292.11
			C293.66,174.372,295.002,171.238,296.131,168.032z M229.232,126.763c0.337-0.762,0.552-1.563,0.642-2.376
			c3.834-13.56,12.276-26.183,24.735-36.593c0.558-0.468,2.22-0.469,2.779,0c17.473,14.6,27.097,33.543,27.097,53.338
			c0,13.252-3.74,25.441-11.101,36.301h-34.322c-7.561-11.17-11.55-23.64-11.55-36.301
			C227.512,136.274,228.099,131.467,229.232,126.763z M169.404,199.32c0-3.158,2.57-5.729,5.729-5.729h59.717
			c0.018,0,0.038,0.003,0.056,0.003c0.013,0,0.027-0.003,0.04-0.003h106.127c3.158,0,5.729,2.57,5.729,5.729
			c0,3.159-2.57,5.729-5.729,5.729h-165.94C171.974,205.049,169.404,202.479,169.404,199.32z M122.807,341.728
			c0-31.426,14.032-60.96,39.512-83.16c0.081-0.07,0.159-0.142,0.237-0.215c11.375-10.732,20.925-23.5,27.834-37.145h131.216
			c7.549,14.714,18.139,28.416,30.874,39.87c23.674,21.893,36.709,50.544,36.709,80.684c0,43.591-27.094,83.089-70.819,103.494
			H193.639C149.91,424.842,122.807,385.322,122.807,341.728z M354.538,495.844L354.538,495.844H157.459v-1.002
			c0-18.433,14.997-33.43,33.43-33.43h128.567c0.211,0.017,0.42,0.045,0.633,0.045c0.281,0,0.563-0.015,0.846-0.045h0.173
			c18.433,0,33.43,14.997,33.43,33.43V495.844z"/>
	</g>
</g>
<g>
	<g>
		<path d="M361.951,366.906c-15.019,0-27.238-12.219-27.238-27.238s12.219-27.238,27.238-27.238c4.462,0,8.079-3.617,8.079-8.079
			s-3.617-8.079-8.079-8.079c-14.55,0-27.44,7.204-35.317,18.226c-7.878-11.021-20.767-18.226-35.317-18.226
			s-27.44,7.204-35.317,18.226c-7.878-11.021-20.768-18.226-35.317-18.226c-14.55,0-27.44,7.204-35.317,18.226
			c-7.878-11.021-20.768-18.226-35.317-18.226c-4.462,0-8.079,3.617-8.079,8.079s3.617,8.079,8.079,8.079
			c15.019,0,27.238,12.219,27.238,27.238s-12.219,27.238-27.238,27.238c-4.462,0-8.079,3.617-8.079,8.079s3.617,8.079,8.079,8.079
			c14.55,0,27.44-7.204,35.317-18.226c7.878,11.021,20.767,18.226,35.317,18.226c14.55,0,27.44-7.204,35.317-18.226
			c7.878,11.021,20.767,18.226,35.317,18.226c14.55,0,27.44-7.204,35.317-18.226c7.878,11.021,20.767,18.226,35.317,18.226
			c4.462,0,8.079-3.617,8.079-8.079S366.412,366.906,361.951,366.906z M220.68,366.906c-15.02,0-27.238-12.219-27.238-27.238
			c0-15.02,12.219-27.238,27.238-27.238c15.019,0,27.238,12.219,27.238,27.238S235.7,366.906,220.68,366.906z M291.316,366.906
			c-15.02,0-27.238-12.219-27.238-27.238s12.219-27.238,27.238-27.238c15.019,0,27.238,12.219,27.238,27.238
			S306.336,366.906,291.316,366.906z"/>
	</g>
</g>
<g>
</g>
<g>
</g>
<g>
</g>
<g>
</g>
<g>
</g>
<g>
</g>
<g>
</g>
<g>
</g>
<g>
</g>
<g>
</g>
<g>
</g>
<g>
</g>
<g>
</g>
<g>
</g>
<g>
</g>
</svg>
