<?xml version="1.0" encoding="iso-8859-1"?>
<!-- Generator: Adobe Illustrator 19.0.0, SVG Export Plug-In . SVG Version: 6.00 Build 0)  -->
<svg version="1.1" id="Capa_1" xmlns="http://www.w3.org/2000/svg" xmlns:xlink="http://www.w3.org/1999/xlink" x="0px" y="0px"
	 viewBox="0 0 496.485 496.485" style="enable-background:new 0 0 496.485 496.485;" xml:space="preserve">
<circle style="fill:#FDBE5E;" cx="248.242" cy="248.242" r="248.242"/>
<rect x="359.176" y="51.976" style="fill:#E1E6E9;" width="63.612" height="141.188"/>
<g>
	<path style="fill:#193651;" d="M422.788,200.921h-63.612c-4.655,0-7.758-3.103-7.758-7.758V51.976c0-4.655,3.103-7.758,7.758-7.758
		h63.612c4.655,0,7.758,3.103,7.758,7.758v141.188C430.545,197.818,426.667,200.921,422.788,200.921z M366.933,185.406h48.097
		V59.733h-48.097V185.406z"/>
	<path style="fill:#193651;" d="M434.424,59.733h-86.885c-4.655,0-7.758-3.103-7.758-7.758s3.103-7.758,7.758-7.758h86.885
		c4.655,0,7.758,3.103,7.758,7.758S439.079,59.733,434.424,59.733z"/>
</g>
<rect x="51.976" y="221.867" style="fill:#FFFFFF;" width="394.085" height="266.861"/>
<path style="fill:#193651;" d="M446.061,496.485H51.976c-4.655,0-7.758-3.103-7.758-7.758V221.867c0-4.655,3.103-7.758,7.758-7.758
	h394.085c4.655,0,7.758,3.103,7.758,7.758v266.861C453.818,493.382,450.715,496.485,446.061,496.485z M59.733,480.97h378.57V229.624
	H59.733V480.97z"/>
<path style="fill:#D0D1D1;" d="M300.218,488.727v-65.164c0-27.927-23.273-51.2-51.2-51.2c-28.703,0-51.2,22.497-51.2,51.2v65.164
	H300.218z"/>
<g>
	<rect x="353.745" y="402.618" style="fill:#193651;" width="15.515" height="15.515"/>
	<rect x="400.291" y="402.618" style="fill:#193651;" width="15.515" height="15.515"/>
	<rect x="353.745" y="441.406" style="fill:#193651;" width="15.515" height="15.515"/>
	<rect x="400.291" y="441.406" style="fill:#193651;" width="15.515" height="15.515"/>
	<rect x="82.23" y="402.618" style="fill:#193651;" width="15.515" height="15.515"/>
	<rect x="128.776" y="402.618" style="fill:#193651;" width="15.515" height="15.515"/>
	<rect x="82.23" y="441.406" style="fill:#193651;" width="15.515" height="15.515"/>
	<rect x="128.776" y="441.406" style="fill:#193651;" width="15.515" height="15.515"/>
</g>
<polygon style="fill:#F16050;" points="467.782,221.867 249.018,51.976 31.03,221.867 "/>
<path style="fill:#193651;" d="M467.782,229.624H31.03c-3.103,0-6.206-2.327-6.982-5.43c-0.776-3.103,0-6.982,2.327-8.533
	L244.364,45.77c3.103-2.327,6.982-2.327,9.309,0l217.988,169.891c2.327,2.327,3.879,5.43,2.327,8.533
	C473.988,227.297,470.885,229.624,467.782,229.624z M53.527,214.109h391.758L249.018,62.061L53.527,214.109z"/>
<g>
	<polygon style="fill:#FFFFFF;" points="113.261,193.164 249.018,87.661 385.552,193.164 	"/>
	<circle style="fill:#FFFFFF;" cx="249.018" cy="152.048" r="21.721"/>
</g>
<g>
	<path style="fill:#193651;" d="M249.018,181.527c-16.291,0-29.479-13.188-29.479-29.479s13.188-29.479,29.479-29.479
		s29.479,13.188,29.479,29.479C278.497,168.339,265.309,181.527,249.018,181.527z M249.018,138.861
		c-7.758,0-13.964,6.206-13.964,13.964c0,7.758,6.206,13.964,13.964,13.964c7.758,0,13.964-6.206,13.964-13.964
		C262.982,145.067,256.776,138.861,249.018,138.861z"/>
	<path style="fill:#193651;" d="M467.782,496.485H31.03c-4.655,0-7.758-3.103-7.758-7.758s3.103-7.758,7.758-7.758h436.752
		c4.655,0,7.758,3.103,7.758,7.758S471.661,496.485,467.782,496.485z"/>
</g>
<g>
	<rect x="355.297" y="254.448" style="fill:#2BA1DB;" width="41.115" height="41.115"/>
	<rect x="296.339" y="254.448" style="fill:#2BA1DB;" width="41.115" height="41.115"/>
	<rect x="355.297" y="314.182" style="fill:#2BA1DB;" width="41.115" height="41.115"/>
	<rect x="296.339" y="314.182" style="fill:#2BA1DB;" width="41.115" height="41.115"/>
	<rect x="160.582" y="254.448" style="fill:#2BA1DB;" width="41.115" height="41.115"/>
	<rect x="101.624" y="254.448" style="fill:#2BA1DB;" width="41.115" height="41.115"/>
	<rect x="160.582" y="314.182" style="fill:#2BA1DB;" width="41.115" height="41.115"/>
	<rect x="101.624" y="314.182" style="fill:#2BA1DB;" width="41.115" height="41.115"/>
</g>
<g>
</g>
<g>
</g>
<g>
</g>
<g>
</g>
<g>
</g>
<g>
</g>
<g>
</g>
<g>
</g>
<g>
</g>
<g>
</g>
<g>
</g>
<g>
</g>
<g>
</g>
<g>
</g>
<g>
</g>
</svg>
