<?xml version="1.0" encoding="iso-8859-1"?>
<!-- Generator: Adobe Illustrator 19.0.0, SVG Export Plug-In . SVG Version: 6.00 Build 0)  -->
<svg version="1.1" id="Capa_1" xmlns="http://www.w3.org/2000/svg" xmlns:xlink="http://www.w3.org/1999/xlink" x="0px" y="0px"
	 viewBox="0 0 496 496" style="enable-background:new 0 0 496 496;" xml:space="preserve">
<g>
	<g>
		<path d="M485.289,323.304c-3.027-2.055-7.062-1.795-9.8,0.632c-72.88,64.258-184.052,57.269-248.31-15.611
			s-57.269-184.051,15.61-248.31c20.13-17.748,44.053-30.656,69.939-37.736c4.264-1.156,6.784-5.55,5.628-9.815
			c-0.764-2.817-3-4.994-5.836-5.681C293.75,2.251,274.505-0.027,255.193,0C118.227,0.008,7.199,111.047,7.207,248.014
			C7.214,384.98,118.254,496.008,255.22,496c104.321-0.006,197.486-65.295,233.093-163.352
			C489.561,329.209,488.316,325.361,485.289,323.304z M255.193,480c-128.13-0.022-231.982-103.909-231.961-232.039
			C23.254,119.831,127.142,15.979,255.272,16c8.116,0.001,16.226,0.429,24.298,1.28c-96.578,43.782-139.378,157.566-95.596,254.144
			s157.566,139.378,254.144,95.596c8.009-3.631,15.759-7.807,23.196-12.501C421.347,431.479,341.911,479.837,255.193,480z"/>
	</g>
</g>
<g>
</g>
<g>
</g>
<g>
</g>
<g>
</g>
<g>
</g>
<g>
</g>
<g>
</g>
<g>
</g>
<g>
</g>
<g>
</g>
<g>
</g>
<g>
</g>
<g>
</g>
<g>
</g>
<g>
</g>
</svg>
