<?xml version="1.0" encoding="iso-8859-1"?>
<!-- Generator: Adobe Illustrator 19.0.0, SVG Export Plug-In . SVG Version: 6.00 Build 0)  -->
<svg version="1.1" id="Layer_1" xmlns="http://www.w3.org/2000/svg" xmlns:xlink="http://www.w3.org/1999/xlink" x="0px" y="0px"
	 viewBox="0 0 512.002 512.002" style="enable-background:new 0 0 512.002 512.002;" xml:space="preserve">
<g>
	<g>
		<path d="M459.45,287.684c-4.637-5.06-11.232-7.963-18.095-7.963H310.718c26.394-17.55,43.828-47.554,43.828-81.557
			c0-51.342-87.284-188.579-91.001-194.396C262.046,1.421,259.454,0,256.669,0c-2.785,0-5.378,1.421-6.877,3.768
			c-3.715,5.817-90.999,143.053-90.999,194.396c0,34.003,17.434,64.007,43.828,81.557H70.646c-6.863,0-13.458,2.903-18.095,7.963
			c-4.604,5.024-6.906,11.788-6.315,18.557C49.364,342,61.796,376.664,82.19,406.484c16.099,23.539,36.849,43.649,60.708,58.995
			c-13.676,7.345-22.997,21.784-22.997,38.364c0,4.507,3.653,8.16,8.16,8.16h254.042c4.507,0,8.16-3.652,8.16-8.16
			c0-16.177-8.879-30.31-22.013-37.81c24.219-15.413,45.272-35.728,61.564-59.549c20.393-29.82,32.826-64.484,35.954-100.243
			C466.356,299.472,464.055,292.708,459.45,287.684z M175.112,198.164c0-35.469,53.679-129.581,81.557-174.657
			c27.878,45.077,81.557,139.19,81.557,174.657c0,44.971-36.586,81.557-81.557,81.557
			C211.699,279.72,175.112,243.135,175.112,198.164z M372.691,495.681H137.469c3.474-11.024,13.793-19.039,25.949-19.039h0.994
			h182.33C358.899,476.641,369.218,484.656,372.691,495.681z M449.507,304.819c-2.883,32.972-14.352,64.941-33.167,92.452
			c-18.085,26.446-42.517,48.212-70.745,63.052H166.405c-28.229-14.84-52.66-36.606-70.746-63.052
			c-18.814-27.51-30.282-59.479-33.167-92.452c-0.198-2.254,0.544-4.425,2.089-6.11c1.578-1.721,3.731-2.669,6.063-2.669h370.709
			c2.334,0,4.487,0.948,6.063,2.669C448.963,300.393,449.705,302.565,449.507,304.819z"/>
	</g>
</g>
<g>
	<g>
		<path d="M263.545,96.358c-1.499-2.347-4.091-3.768-6.876-3.768c-2.785,0-5.378,1.421-6.877,3.768
			c-5.082,7.956-49.649,78.543-49.649,106.824c0,4.507,3.653,8.16,8.16,8.16s8.16-3.652,8.16-8.16
			c0-5.456,3.008-20.149,23.151-57.26c6.222-11.463,12.494-22.108,17.056-29.647c4.561,7.539,10.834,18.184,17.056,29.647
			c20.144,37.11,23.151,51.803,23.151,57.26c0,4.507,3.652,8.16,8.16,8.16s8.16-3.652,8.16-8.16
			C313.195,174.902,268.627,104.314,263.545,96.358z"/>
	</g>
</g>
<g>
	<g>
		<path d="M263.546,180.363c-1.5-2.347-4.092-3.768-6.877-3.768c-2.785,0-5.378,1.421-6.877,3.768
			c-4.957,7.76-29.684,47.343-29.684,64.541c0,4.507,3.653,8.16,8.16,8.16s8.16-3.652,8.16-8.16c0-4.788,6.34-21.201,20.243-44.605
			c13.902,23.398,20.24,39.812,20.24,44.605c0,4.507,3.652,8.16,8.16,8.16s8.16-3.652,8.16-8.16
			C293.23,227.704,268.503,188.123,263.546,180.363z"/>
	</g>
</g>
<g>
	<g>
		<path d="M410.713,352.087c-11.877-11.023-27.299-17.094-43.423-17.094c-24.072,0-45.096,13.469-56.104,33.352
			c-11.008-19.883-32.032-33.352-56.104-33.352c-24.072,0-45.096,13.469-56.104,33.352c-11.008-19.883-32.032-33.352-56.104-33.352
			c-17.188,0-33.341,6.78-45.482,19.094c-3.164,3.21-3.128,8.375,0.081,11.539c3.207,3.164,8.374,3.127,11.539-0.079
			c9.051-9.179,21.077-14.234,33.863-14.234c26.436,0,47.944,21.862,47.944,48.733c0,4.507,3.653,8.16,8.16,8.16
			s8.16-3.652,8.16-8.16c0-26.872,21.508-48.733,47.944-48.733c26.438,0,47.944,21.862,47.944,48.733c0,4.507,3.652,8.16,8.16,8.16
			s8.16-3.652,8.16-8.16c0-26.872,21.508-48.733,47.944-48.733c11.993,0,23.471,4.523,32.32,12.737
			c3.304,3.065,8.465,2.872,11.532-0.43C414.207,360.316,414.016,355.153,410.713,352.087z"/>
	</g>
</g>
<g>
	<g>
		<circle cx="142.012" cy="387.315" r="9.14"/>
	</g>
</g>
<g>
	<g>
		<circle cx="255.998" cy="387.315" r="9.14"/>
	</g>
</g>
<g>
	<g>
		<circle cx="368.003" cy="387.315" r="9.14"/>
	</g>
</g>
<g>
</g>
<g>
</g>
<g>
</g>
<g>
</g>
<g>
</g>
<g>
</g>
<g>
</g>
<g>
</g>
<g>
</g>
<g>
</g>
<g>
</g>
<g>
</g>
<g>
</g>
<g>
</g>
<g>
</g>
</svg>
