<?xml version="1.0" encoding="iso-8859-1"?>
<!-- Generator: Adobe Illustrator 19.0.0, SVG Export Plug-In . SVG Version: 6.00 Build 0)  -->
<svg version="1.1" id="Capa_1" xmlns="http://www.w3.org/2000/svg" xmlns:xlink="http://www.w3.org/1999/xlink" x="0px" y="0px"
	 viewBox="0 0 496 496" style="enable-background:new 0 0 496 496;" xml:space="preserve">
<g>
	<g>
		<g>
			<rect x="280" y="400" width="16" height="32"/>
			<path d="M24,432h16v-48h152v-16H40V88h240v88h16V83.312l24-24V27.056l-4.424-2.208C313.544,23.832,264.688,0,160,0
				S6.456,23.832,4.424,24.84L0,27.056v32.256l24,24V432z M19.312,56H120V40H16v-2.736C29.928,31.736,76.84,16,160,16
				c83.168,0,130.096,15.736,144,21.264V40H200v16h100.688l-16,16H35.312L19.312,56z"/>
			<path d="M8,496h304v-48H8V496z M24,464h272v16H24V464z"/>
			<path d="M240,176v-64H80v64H240z M96,128h128v32H96V128z"/>
			<path d="M208,192v192h288V192H208z M468.688,208l-67.72,67.72C387.888,288.8,370.496,296,352,296
				c-18.496,0-35.888-7.2-48.968-20.28L235.312,208H468.688z M480,356.688l-57.696-57.696l-11.312,11.312L468.688,368H235.312
				l57.696-57.696l-11.312-11.312L224,356.688V219.312l67.72,67.72C307.824,303.136,329.224,312,352,312s44.176-8.864,60.28-24.968
				l67.72-67.72V356.688z"/>
		</g>
	</g>
</g>
<g>
</g>
<g>
</g>
<g>
</g>
<g>
</g>
<g>
</g>
<g>
</g>
<g>
</g>
<g>
</g>
<g>
</g>
<g>
</g>
<g>
</g>
<g>
</g>
<g>
</g>
<g>
</g>
<g>
</g>
</svg>
