<?xml version="1.0" encoding="iso-8859-1"?>
<!-- Generator: Adobe Illustrator 19.0.0, SVG Export Plug-In . SVG Version: 6.00 Build 0)  -->
<svg version="1.1" id="Capa_1" xmlns="http://www.w3.org/2000/svg" xmlns:xlink="http://www.w3.org/1999/xlink" x="0px" y="0px"
	 viewBox="0 0 512.001 512.001" style="enable-background:new 0 0 512.001 512.001;" xml:space="preserve">
<g>
	<g>
		<path d="M502.001,297.999h-94.042c-5.522,0-10,4.478-10,10s4.478,10,10,10h94.042c5.522,0,10-4.478,10-10
			S507.524,297.999,502.001,297.999z"/>
	</g>
</g>
<g>
	<g>
		<path d="M377.071,300.929c-1.869-1.861-4.439-2.93-7.069-2.93c-2.641,0-5.21,1.069-7.07,2.93c-1.86,1.861-2.93,4.44-2.93,7.07
			c0,2.63,1.069,5.21,2.93,7.069c1.86,1.86,4.43,2.931,7.07,2.931c2.63,0,5.21-1.07,7.069-2.931c1.86-1.859,2.931-4.439,2.931-7.069
			C380.002,305.369,378.932,302.789,377.071,300.929z"/>
	</g>
</g>
<g>
	<g>
		<path d="M320.003,297.999h-78.755c-3.433,0-6.625,1.761-8.457,4.663L110.366,496.66c-2.947,4.671-1.551,10.847,3.12,13.794
			c1.657,1.045,3.503,1.544,5.327,1.544c3.318,0,6.564-1.65,8.467-4.664l119.481-189.335h73.241c5.522,0,10-4.478,10-10
			C330.002,302.477,325.526,297.999,320.003,297.999z"/>
	</g>
</g>
<g>
	<g>
		<path d="M153.495,256.318l-135.95-135.95c-3.906-3.905-10.236-3.905-14.143,0c-3.905,3.905-3.905,10.237,0,14.142l130.292,130.291
			L1.558,473.51c-2.954,4.667-1.566,10.845,3.1,13.799c1.66,1.051,3.511,1.552,5.34,1.552c3.313,0,6.556-1.646,8.459-4.651
			l136.417-215.471C157.375,264.786,156.803,259.627,153.495,256.318z"/>
	</g>
</g>
<g>
	<g>
		<path d="M119.63,75.376L47.203,2.95c-3.906-3.905-10.236-3.905-14.143,0c-3.905,3.905-3.905,10.237,0,14.143l72.428,72.426
			c1.953,1.953,4.512,2.929,7.071,2.929c2.559,0,5.118-0.976,7.071-2.929C123.535,85.614,123.535,79.282,119.63,75.376z"/>
	</g>
</g>
<g>
	<g>
		<path d="M143.784,99.531c-1.859-1.86-4.439-2.92-7.069-2.92c-2.63,0-5.21,1.06-7.07,2.92s-2.93,4.44-2.93,7.08
			c0,2.63,1.069,5.2,2.93,7.06c1.86,1.871,4.44,2.94,7.07,2.94c2.63,0,5.21-1.07,7.069-2.94c1.87-1.86,2.931-4.43,2.931-7.06
			C146.715,103.971,145.654,101.401,143.784,99.531z"/>
	</g>
</g>
<g>
	<g>
		<path d="M502.001,246h-29.5c-5.522,0-10,4.477-10,10c0,5.522,4.478,10,10,10h29.5c5.522,0,10-4.478,10-10
			C512.001,250.477,507.524,246,502.001,246z"/>
	</g>
</g>
<g>
	<g>
		<path d="M430.188,246h-23.457c-5.522,0-10,4.477-10,10c0,5.522,4.477,10,10,10h23.457c5.522,0,10-4.478,10-10
			C440.188,250.477,435.71,246,430.188,246z"/>
	</g>
</g>
<g>
	<g>
		<path d="M502.001,194.001h-91.484l19.501-24.996c0.021-0.028,0.043-0.056,0.063-0.083c14.886-18.382,23.08-41.529,23.08-65.22
			c0-57.18-46.519-103.699-103.699-103.699c-57.179,0-103.699,46.519-103.699,103.699c0,23.717,8.191,46.841,23.084,65.231
			c0.129,0.191,0.265,0.378,0.408,0.562l19.128,24.506h-50.128l-68.791-68.791c-3.906-3.905-10.236-3.904-14.143,0
			c-3.905,3.905-3.905,10.237,0,14.143l71.72,71.719c1.876,1.875,4.419,2.929,7.071,2.929h65.892c1.23,0,2.403-0.233,3.491-0.639
			L328.971,246h-3.968c-5.522,0-10,4.477-10,10c0,5.522,4.478,10,10,10h36.667c5.523,0,10-4.478,10-10
			c0-3.068-1.385-5.81-3.56-7.645L394.913,214h107.088c5.522,0,10-4.477,10-10S507.523,194.001,502.001,194.001z M349.46,239.745
			l-63.847-81.797c-0.215-0.337-0.453-0.663-0.711-0.976c-12.342-14.938-19.139-33.857-19.139-53.27
			c0-46.151,37.548-83.699,83.699-83.699s83.699,37.548,83.699,83.699c0,19.208-6.672,37.972-18.786,52.834
			c-0.109,0.135-0.215,0.271-0.316,0.41L349.46,239.745z"/>
	</g>
</g>
<g>
	<g>
		<path d="M272.374,246h-32.383c-5.522,0-10,4.477-10,10c0,5.522,4.478,10,10,10h32.383c5.522,0,10-4.478,10-10
			C282.373,250.477,277.896,246,272.374,246z"/>
	</g>
</g>
<g>
	<g>
		<path d="M41.861,71.146l-24.79-24.791c-3.905-3.905-10.235-3.905-14.143,0c-3.905,3.905-3.905,10.237,0,14.142l24.791,24.791
			c1.953,1.953,4.512,2.929,7.071,2.929s5.118-0.977,7.071-2.929C45.766,81.383,45.766,75.051,41.861,71.146z"/>
	</g>
</g>
<g>
	<g>
		<path d="M95.043,124.327L70.252,99.537c-3.906-3.906-10.236-3.905-14.142,0c-3.905,3.905-3.905,10.237,0,14.142l24.791,24.791
			c1.953,1.953,4.512,2.929,7.071,2.929c2.559,0,5.118-0.977,7.071-2.929C98.948,134.564,98.948,128.232,95.043,124.327z"/>
	</g>
</g>
<g>
	<g>
		<path d="M148.223,177.509l-24.791-24.791c-3.905-3.906-10.235-3.905-14.142,0c-3.905,3.905-3.905,10.237,0,14.142l24.791,24.791
			c1.953,1.953,4.512,2.929,7.071,2.929c2.559,0,5.118-0.977,7.071-2.929C152.128,187.746,152.128,181.414,148.223,177.509z"/>
	</g>
</g>
<g>
	<g>
		<path d="M198.741,228.026l-22.128-22.128c-3.906-3.905-10.236-3.905-14.143,0c-3.905,3.905-3.905,10.237,0,14.142l22.129,22.128
			c1.953,1.953,4.512,2.929,7.071,2.929c2.559,0,5.118-0.977,7.071-2.929C202.646,238.263,202.646,231.931,198.741,228.026z"/>
	</g>
</g>
<g>
	<g>
		<path d="M83.553,460.456c-4.672-2.948-10.846-1.55-13.794,3.12L48.881,496.66c-2.947,4.671-1.551,10.847,3.12,13.794
			c1.657,1.046,3.503,1.544,5.327,1.544c3.318,0,6.564-1.65,8.467-4.664l20.878-33.084C89.62,469.579,88.224,463.403,83.553,460.456
			z"/>
	</g>
</g>
<g>
	<g>
		<path d="M129.557,387.553c-4.672-2.948-10.846-1.551-13.794,3.12l-21.198,33.593c-2.947,4.671-1.55,10.847,3.12,13.794
			c1.657,1.046,3.503,1.544,5.327,1.544c3.318,0,6.564-1.65,8.467-4.664l21.198-33.593
			C135.624,396.676,134.227,390.5,129.557,387.553z"/>
	</g>
</g>
<g>
	<g>
		<path d="M168.816,325.34c-4.672-2.949-10.848-1.55-13.794,3.12l-14.818,23.483c-2.947,4.671-1.55,10.847,3.12,13.794
			c1.657,1.046,3.503,1.544,5.327,1.544c3.318,0,6.565-1.65,8.467-4.664l14.818-23.483
			C174.883,334.463,173.486,328.287,168.816,325.34z"/>
	</g>
</g>
<g>
	<g>
		<path d="M204.267,269.163c-4.672-2.95-10.846-1.55-13.794,3.12l-14.519,23.006c-2.947,4.671-1.551,10.847,3.12,13.794
			c1.657,1.046,3.503,1.544,5.327,1.544c3.318,0,6.564-1.65,8.467-4.664l14.519-23.006
			C210.334,278.286,208.938,272.11,204.267,269.163z"/>
	</g>
</g>
<g>
	<g>
		<path d="M349.462,54.199c-28.12,0-50.996,22.877-50.996,50.997s22.877,50.997,50.996,50.997s50.997-22.878,50.997-50.997
			C400.459,77.077,377.581,54.199,349.462,54.199z M349.462,136.194c-17.092-0.001-30.997-13.906-30.997-30.998
			s13.905-30.998,30.997-30.998c17.093,0,30.998,13.905,30.998,30.998C380.459,122.289,366.554,136.194,349.462,136.194z"/>
	</g>
</g>
<g>
</g>
<g>
</g>
<g>
</g>
<g>
</g>
<g>
</g>
<g>
</g>
<g>
</g>
<g>
</g>
<g>
</g>
<g>
</g>
<g>
</g>
<g>
</g>
<g>
</g>
<g>
</g>
<g>
</g>
</svg>
