<?xml version="1.0" encoding="iso-8859-1"?>
<!-- Generator: Adobe Illustrator 16.0.0, SVG Export Plug-In . SVG Version: 6.00 Build 0)  -->
<!DOCTYPE svg PUBLIC "-//W3C//DTD SVG 1.1//EN" "http://www.w3.org/Graphics/SVG/1.1/DTD/svg11.dtd">
<svg version="1.1" id="Capa_1" xmlns="http://www.w3.org/2000/svg" xmlns:xlink="http://www.w3.org/1999/xlink" x="0px" y="0px"
	 width="110.888px" height="110.889px" viewBox="0 0 110.888 110.889" style="enable-background:new 0 0 110.888 110.889;"
	 xml:space="preserve">
<g>
	<path d="M98.903,83.085c-0.509-0.539-1.215-0.847-1.971-0.875c-0.579-0.032-1.466,0.263-1.989,0.771l-1.918,1.801l-6.281-6.222
		h0.804c1.55,0,2.802-1.262,2.802-2.802V29.072l2.744-2.908l1.858,1.749c0.542,0.514,1.242,0.705,2.003,0.768
		c0.744-0.025,1.444-0.342,1.953-0.875l9.067-9.609c0.514-0.544,0.793-1.267,0.771-2c-0.025-0.741-0.343-1.448-0.885-1.962
		L93.579,0.771c-1.128-1.067-2.898-1.015-3.949,0.117l-9.072,9.609c-0.517,0.539-0.79,1.261-0.769,1.994
		c0.022,0.733,0.34,1.452,0.881,1.968l1.862,1.748l-8.702,9.212H37.064l-8.699-9.212l1.86-1.748
		c0.544-0.516,0.857-1.223,0.878-1.968c0.025-0.744-0.252-1.466-0.766-1.994l-9.072-9.614c-1.053-1.127-2.823-1.185-3.951-0.118
		L3.033,14.229c-0.55,0.514-0.856,1.214-0.887,1.961c-0.021,0.744,0.261,1.466,0.774,2l9.068,9.609
		c0.509,0.545,1.209,0.851,1.954,0.875c0.764,0.011,1.474-0.253,2.001-0.769l1.861-1.749l0.824,0.875
		c-0.164,0.353-0.266,0.745-0.266,1.158v47.552c0,1.542,1.262,2.801,2.802,2.801h2.46l-5.833,6.178l-1.847-1.745
		c-0.549-0.52-1.469-0.805-2.001-0.771c-0.744,0.027-1.45,0.345-1.958,0.875L2.91,92.679c-0.509,0.552-0.79,1.274-0.768,2.008
		c0.023,0.733,0.341,1.45,0.875,1.953L17.3,110.117c0.549,0.52,1.239,0.771,1.929,0.771c0.744,0,1.487-0.3,2.032-0.887l9.062-9.597
		c1.054-1.111,1.007-2.89-0.117-3.949l-1.856-1.753l4.63-4.901v3.199c0,1.537,1.253,2.802,2.801,2.802h37.097
		c1.544,0,2.802-1.265,2.802-2.802v-5.516l6.824,7.218l-1.856,1.753c-1.121,1.06-1.168,2.838-0.117,3.96l9.072,9.604
		c0.545,0.579,1.284,0.869,2.03,0.869c0.688,0,1.382-0.252,1.919-0.771l14.283-13.478c0.536-0.503,0.854-1.215,0.874-1.953
		c0.021-0.744-0.258-1.467-0.767-2.008L98.903,83.085z M88.518,17.999c0.523-0.55,0.798-1.272,0.775-2.005
		c-0.022-0.733-0.35-1.45-0.881-1.967l-1.86-1.749l5.221-5.519l2.938,2.769l-1.373,1.467c-1.056,1.116-1.018,2.897,0.12,3.952
		c0.542,0.521,1.233,0.773,1.921,0.773c0.745,0,1.488-0.303,2.03-0.88l1.378-1.466l3.197,3.007l-5.225,5.538l-1.862-1.749
		c-0.547-0.518-1.285-0.78-1.998-0.769c-0.749,0.022-1.449,0.342-1.958,0.876l-4.827,5.109h-4.558L88.518,17.999z M15.999,20.169
		l-1.86,1.749L8.91,16.38l3.196-3.007l1.379,1.466c0.547,0.582,1.289,0.88,2.034,0.88c0.689,0,1.378-0.251,1.919-0.773
		c1.127-1.055,1.177-2.835,0.119-3.952l-1.371-1.467l2.935-2.769l5.223,5.519l-1.861,1.749c-0.549,0.517-0.859,1.223-0.88,1.967
		c-0.021,0.75,0.252,1.475,0.775,2.005l6.974,7.386h-4.567l-4.818-5.109C18.908,19.148,17.115,19.093,15.999,20.169z M22.387,92.88
		c-1.058,1.129-1.02,2.907,0.112,3.963l1.855,1.756l-5.229,5.516l-3.187-3.009l1.623-1.722c1.062-1.124,1.02-2.896-0.11-3.964
		c-1.132-1.065-2.897-1.013-3.961,0.12l-1.63,1.724L8.93,94.5l5.22-5.525l1.854,1.752c0.544,0.519,1.256,0.683,2.005,0.771
		c0.743-0.022,1.448-0.346,1.957-0.887l11.388-12.045h1.657v3.086L22.387,92.88z M63.435,90.194V75.819
		c0-1.543-1.255-2.802-2.804-2.802c-1.548,0-2.805,1.259-2.805,2.802v14.375h-6.93V75.819c0-1.543-1.26-2.802-2.801-2.802
		c-1.545,0-2.801,1.259-2.801,2.802v14.375h-6.679V75.748c0-1.549-1.256-2.802-2.802-2.802H23.991V31.001h60.761v41.945H72.918
		c-1.551,0-2.805,1.253-2.805,2.802v4.548c0,0.032,0,0.07,0,0.104v9.8h-6.679V90.194z M99.034,97.264l-1.631-1.724
		c-1.056-1.121-2.834-1.186-3.962-0.12c-1.116,1.067-1.169,2.84-0.108,3.964l1.625,1.722l-3.19,3.009l-5.224-5.516l1.853-1.756
		c1.122-1.056,1.172-2.834,0.109-3.963L75.707,79.321V78.55h3.114c0.037,0.038,0.051,0.093,0.093,0.12l12.093,12.006
		c1.074,1.051,2.802,1.072,3.896,0.043l1.857-1.751l5.225,5.527L99.034,97.264z M47.625,50.79c0,3.031-2.455,5.483-5.486,5.483
		c-3.037,0-5.491-2.452-5.491-5.483c0-3.026,2.454-5.486,5.491-5.486C45.159,45.304,47.625,47.764,47.625,50.79z M66.586,56.278
		c-3.017,0-5.484-2.451-5.484-5.482c0-3.025,2.464-5.486,5.484-5.486c3.03,0,5.487,2.454,5.487,5.486
		C72.074,53.827,69.617,56.278,66.586,56.278z"/>
</g>
<g>
</g>
<g>
</g>
<g>
</g>
<g>
</g>
<g>
</g>
<g>
</g>
<g>
</g>
<g>
</g>
<g>
</g>
<g>
</g>
<g>
</g>
<g>
</g>
<g>
</g>
<g>
</g>
<g>
</g>
</svg>
