<svg height="512pt" viewBox="0 -22 512.00071 512" width="512pt" xmlns="http://www.w3.org/2000/svg"><path d="m345.285156 427.34375c-2.65625-3.175781-7.386718-3.597656-10.5625-.9375-3.179687 2.660156-3.597656 7.390625-.9375 10.566406 2.078125 2.484375 4.085938 5.085938 5.964844 7.730469 2.761719 3.882813-.308594 9.292969-4.945312 9.292969 0 0-190.132813 0-190.289063 0-4.503906 0-7.71875-5.394532-4.949219-9.292969 1.757813-2.472656 3.628906-4.910156 5.5625-7.242187 2.640625-3.1875 2.199219-7.917969-.988281-10.5625-3.191406-2.640626-7.917969-2.199219-10.5625.988281-2.167969 2.621093-4.265625 5.351562-6.238281 8.125-9.628906 13.546875.738281 32.984375 17.175781 32.984375h190.289063c16.492187 0 26.789062-19.453125 17.175781-32.984375-2.109375-2.964844-4.359375-5.882813-6.695313-8.667969zm0 0"/><path d="m470.09375 5.117188c-2.363281-3.203126-6.152344-5.117188-10.128906-5.117188-3.980469 0-7.765625 1.914062-10.132813 5.117188-12.597656 17.070312-41.90625 60.382812-41.90625 93.746093 0 18.640625 8.957031 33.890625 25.898438 44.101563 5.054687 3.042968 10.097656 5.1875 14.316406 6.660156 1.445313.507812 2.796875.933594 4.015625 1.292969v19.304687c-4.214844 1.472656-7.125 4.949219-7.125 4.949219-49.972656 49.894531-123.839844 65.984375-188.183594 40.992187l-4.34375-1.695312c-24.480468-9.566406-61.472656-24.027344-99.582031-24.027344h-129.257813c-6.753906 0-13.203124 2.898438-17.691406 7.949219-4.484375 5.042969-6.601562 11.773437-5.808594 18.472656.617188 5.234375 2.4375 15.925781 2.476563 16.070313 21.257813 113.34375 120.40625 195.5625 235.925781 195.5625 61.335938 0 119.710938-23.125 164.378906-65.113282 44.394532-41.730468 71.070313-98.070312 75.136719-158.667968.011719-.101563.019531-.199219.027344-.300782.359375-5.476562.542969-10.859374.542969-16.007812v-.28125c-.003906-7.675781-4.503906-14.550781-11.5-17.636719v-19.390625c1.375-.390625 2.9375-.875 4.636718-1.46875 4.214844-1.472656 9.261719-3.617187 14.316407-6.664062 16.941406-10.210938 25.894531-25.460938 25.894531-44.097656 0-33.367188-29.304688-76.679688-41.90625-93.75zm-10.128906 11.566406c10.804687 15.003906 37.035156 54.3125 37.035156 82.179687 0 4.835938-.84375 9.09375-2.28125 12.835938-4.582031-11.988281-12.246094-23.960938-18.980469-33.179688-3.722656-5.097656-9.472656-8.023437-15.773437-8.023437-6.300782 0-12.050782 2.925781-15.773438 8.023437-6.738281 9.214844-14.398437 21.191407-18.980468 33.175781-1.4375-3.742187-2.285157-7.996093-2.285157-12.832031 0-27.867187 26.230469-67.175781 37.039063-82.179687zm-.308594 98.34375c-4.144531 0-7.5 3.359375-7.5 7.5v12.585937c-4.683594-1.714843-10.488281-4.417969-15.664062-8.5 1.652343-10.113281 8.570312-23.863281 19.808593-39.246093 1.1875-1.628907 2.804688-1.871094 3.664063-1.871094.855468 0 2.472656.242187 3.664062 1.871094 11.238282 15.382812 18.15625 29.132812 19.808594 39.25-5.417969 4.277343-11.503906 7.039062-16.28125 8.730468v-12.820312c0-4.140625-3.359375-7.5-7.5-7.5zm-66.984375 237.425781c-41.875 39.363281-96.605469 61.042969-154.109375 61.042969-105.402344 0-196.269531-73.007813-219.425781-174.867188h22.863281c4.144531 0 7.5-3.359375 7.5-7.5s-3.355469-7.5-7.5-7.5h-25.761719c-.453125-2.867187-.847656-5.71875-1.179687-8.523437-.59375-5.027344 3.46875-9.660157 8.605468-9.660157h129.253907c35.285156 0 70.691406 13.839844 94.121093 22.996094l4.375 1.707032c69.878907 27.144531 150.039063 9.730468 204.214844-44.363282 1.472656-1.46875 3.242188-2.5 5.371094-1.617187.796875.332031 2.652344 1.378906 2.652344 3.964843 0 0-.113282 8.316407-.34375 12.496094l-6.222656 6.214844c-54.488282 54.402344-135.027344 71.945312-205.1875 44.691406-1.523438-.59375-3.101563-1.210937-4.722657-1.84375-26.554687-10.378906-66.679687-26.0625-107.972656-26.0625h-62.304687c-4.144532 0-7.5 3.359375-7.5 7.5 0 4.144532 3.355468 7.5 7.5 7.5h62.304687c38.464844 0 77.007813 15.066406 102.515625 25.03125 1.632812.640625 3.214844 1.257813 4.75 1.855469 23.714844 9.210937 48.519531 13.6875 73.210938 13.6875 51.109374 0 101.734374-19.175781 141.152343-55.195313-7.78125 49.003907-31.542969 94.023438-68.160156 128.445313zm0 0"/></svg>