<?xml version="1.0" encoding="iso-8859-1"?>
<!-- Generator: Adobe Illustrator 18.0.0, SVG Export Plug-In . SVG Version: 6.00 Build 0)  -->
<!DOCTYPE svg PUBLIC "-//W3C//DTD SVG 1.1//EN" "http://www.w3.org/Graphics/SVG/1.1/DTD/svg11.dtd">
<svg xmlns="http://www.w3.org/2000/svg" xmlns:xlink="http://www.w3.org/1999/xlink" version="1.1" id="Capa_1" x="0px" y="0px" viewBox="0 0 188.11 188.11" style="enable-background:new 0 0 188.11 188.11;" xml:space="preserve" width="512px" height="512px">
<g>
	<path d="M94.056,0.001C42.194,0.001,0.001,42.191,0,94.051c0.001,51.864,42.194,94.059,94.055,94.059   c51.862,0,94.056-42.194,94.056-94.058C188.109,42.191,145.916,0,94.056,0.001z M94.055,173.11   c-43.59,0-79.054-35.466-79.055-79.059c0.001-43.589,35.465-79.051,79.056-79.051c43.59-0.001,79.054,35.461,79.055,79.052   C173.11,137.645,137.646,173.11,94.055,173.11z" fill="#D80027"/>
	<rect x="86.556" y="123.268" width="15" height="29.212" fill="#D80027"/>
	<rect x="86.556" y="35.63" width="15" height="29.213" fill="#D80027"/>
	<rect x="123.268" y="86.552" width="29.212" height="15" fill="#D80027"/>
	<rect x="35.63" y="86.552" width="29.214" height="15" fill="#D80027"/>
</g>
<g>
</g>
<g>
</g>
<g>
</g>
<g>
</g>
<g>
</g>
<g>
</g>
<g>
</g>
<g>
</g>
<g>
</g>
<g>
</g>
<g>
</g>
<g>
</g>
<g>
</g>
<g>
</g>
<g>
</g>
</svg>
