<svg height="512pt" viewBox="-110 0 512 512" width="512pt" xmlns="http://www.w3.org/2000/svg"><path d="m189.667969 10h-87.332031c-46.578126 0-84.335938 37.757812-84.335938 84.332031v14c0 16.871094 13.675781 30.546875 30.542969 30.546875h194.914062c16.867188 0 30.542969-13.675781 30.542969-30.546875v-14c0-46.574219-37.757812-84.332031-84.332031-84.332031zm0 0" fill="#fff"/><path d="m224.621094 138.878906h-157.242188c-11.042968 0-20-8.957031-20-20 0-11.046875 8.957032-20 20-20h157.242188c11.042968 0 20 8.953125 20 20 0 11.042969-8.957032 20-20 20zm0 0" fill="#edf2fa"/><path d="m111.121094 98.878906c0-19.265625 15.617187-34.878906 34.878906-34.878906s34.878906 15.613281 34.878906 34.878906" fill="#fff"/><path d="m258 502h-224c-13.253906 0-24-10.746094-24-24v-255h272v255c0 13.253906-10.746094 24-24 24zm0 0" fill="#edf2fa"/><path d="m235.410156 138.878906h-178.203125l-47.207031 84.121094h272zm0 0" fill="#9bf"/><path d="m290.753906 218.167969c0-.003907-.003906-.007813-.007812-.011719l-38.855469-70.167969c18.320313-3.890625 32.109375-20.191406 32.109375-39.65625v-14c0-52.015625-42.316406-94.332031-94.332031-94.332031h-87.335938c-52.015625 0-94.332031 42.316406-94.332031 94.332031v14c0 19.628907 14.019531 36.039063 32.570312 39.753907l-39.289062 70.019531c-.003906.007812-.003906.011719-.007812.023437-.808594 1.441406-1.273438 3.101563-1.273438 4.871094v255c0 18.746094 15.253906 34 34 34h224c18.746094 0 34-15.253906 34-34v-255c0-1.753906-.453125-3.398438-1.246094-4.832031zm-233.375-99.289063c0-5.515625 4.488282-10 10-10h157.242188c5.511718 0 10 4.484375 10 10 0 5.511719-4.488282 10-10 10h-157.242188c-5.511718 0-10-4.488281-10-10zm65.851563-30c3.855469-8.75 12.609375-14.878906 22.769531-14.878906s18.914062 6.128906 22.769531 14.878906zm-95.230469 19.453125v-14c0-40.984375 33.347656-74.332031 74.332031-74.332031h87.335938c40.984375 0 74.332031 33.347656 74.332031 74.332031v14c0 7.582031-4.136719 14.199219-10.261719 17.761719.570313-2.3125.882813-4.730469.882813-7.214844 0-16.542968-13.460938-30-30-30h-34.882813c-4.558593-19.945312-22.429687-34.878906-43.738281-34.878906s-39.179688 14.933594-43.738281 34.878906h-34.882813c-16.539062 0-30 13.457032-30 30 0 2.484375.3125 4.898438.882813 7.214844-6.125-3.5625-10.261719-10.179688-10.261719-17.761719zm244 369.667969c0 7.71875-6.28125 14-14 14h-224c-7.71875 0-14-6.28125-14-14v-245h85.667969c5.519531 0 10-4.476562 10-10s-4.480469-10-10-10h-78.589844l35.984375-64.121094h166.457031l35.511719 64.121094h-79.152344c-5.523437 0-10 4.476562-10 10s4.476563 10 10 10h86.121094zm0 0"/><path d="m103.179688 330.597656c-4.066407-1.367187-8.5625.019532-11.15625 3.449219l-14.492188 19.164063-14.492188-19.164063c-2.589843-3.425781-7.082031-4.820313-11.15625-3.449219-4.074218 1.367188-6.820312 5.183594-6.820312 9.480469v63.59375c0 5.523437 4.480469 10 10 10 5.523438 0 10-4.476563 10-10v-33.789063l4.492188 5.9375c1.890624 2.5 4.84375 3.96875 7.976562 3.96875 3.136719 0 6.085938-1.46875 7.980469-3.96875l4.492187-5.9375v33.789063c0 5.523437 4.476563 10 10 10 5.519532 0 10-4.476563 10-10v-63.59375c-.003906-4.296875-2.75-8.113281-6.824218-9.480469zm0 0"/><path d="m134.75 330.078125c-5.523438 0-10 4.476563-10 10v63.59375c0 5.523437 4.476562 10 10 10s10-4.476563 10-10v-63.59375c0-5.523437-4.476562-10-10-10zm0 0"/><path d="m180.75 340.410156c0-5.523437-4.476562-10-10-10s-10 4.476563-10 10v63.59375c0 5.523438 4.476562 10 10 10h8.28125c5.519531 0 10-4.476562 10-10 0-4.9375-3.578125-9.035156-8.28125-9.851562zm0 0"/><path d="m214.664062 413.671875c5.523438 0 10-4.476563 10-10v-6.019531l12.566407 12.976562c1.960937 2.023438 4.570312 3.042969 7.183593 3.042969 2.507813 0 5.015626-.9375 6.957032-2.816406 3.96875-3.839844 4.070312-10.171875.226562-14.140625l-23.238281-24 23.46875-25.925782c3.707031-4.097656 3.394531-10.417968-.703125-14.125-4.09375-3.707031-10.417969-3.394531-14.125.703126l-12.335938 13.628906v-6.917969c0-5.523437-4.476562-10-10-10-5.519531 0-10 4.476563-10 10v63.59375c0 5.523437 4.476563 10 10 10zm0 0"/><path d="m146 213c-2.628906 0-5.210938 1.070312-7.070312 2.929688-1.859376 1.859374-2.929688 4.441406-2.929688 7.070312s1.070312 5.210938 2.929688 7.070312c1.859374 1.859376 4.441406 2.929688 7.070312 2.929688s5.210938-1.070312 7.070312-2.929688c1.859376-1.859374 2.929688-4.441406 2.929688-7.070312s-1.070312-5.210938-2.929688-7.070312c-1.859374-1.859376-4.441406-2.929688-7.070312-2.929688zm0 0"/></svg>