<svg height="512pt" viewBox="0 -10 512 511" width="512pt" xmlns="http://www.w3.org/2000/svg"><path d="m263.332031 73.578125 24.140625 8.042969c4.808594 1.609375 8.519532 5.488281 9.914063 10.363281l8.578125 30.015625c1.34375 4.664062 6.207031 7.355469 10.871094 6.011719 2.902343-.835938 5.171874-3.105469 6.007812-6.011719l8.582031-30.015625c1.394531-4.875 5.105469-8.753906 9.914063-10.363281l24.140625-8.042969c4.609375-1.515625 7.117187-6.476563 5.601562-11.085937-.871093-2.648438-2.949219-4.730469-5.601562-5.601563l-24.730469-8.234375c-4.605469-1.53125-8.21875-5.144531-9.753906-9.75l-8.257813-24.765625c-1.511719-4.605469-6.476562-7.113281-11.082031-5.601563-2.652344.871094-4.730469 2.953126-5.601562 5.601563l-8.253907 24.773437c-1.539062 4.597657-5.144531 8.210938-9.742187 9.75l-24.765625 8.261719c-4.605469 1.515625-7.113281 6.476563-5.597657 11.085938.871094 2.652343 2.949219 4.730469 5.597657 5.601562zm51.074219-28.867187c3.3125 9.652343 10.894531 17.234374 20.550781 20.542968-9.9375 3.613282-17.535156 11.78125-20.417969 21.953125l-.132812.464844-.132812-.464844c-2.886719-10.171875-10.480469-18.339843-20.417969-21.953125 9.65625-3.308594 17.238281-10.890625 20.550781-20.542968zm0 0"/><path d="m362.707031 189.851562h17.5625v17.5625h-17.5625zm0 0"/><path d="m389.050781 110.8125h17.566407v17.566406h-17.566407zm0 0"/><path d="m327.578125 145.941406h17.566406v17.5625h-17.566406zm0 0"/><path d="m380.269531 227.71875c-34.015625-.066406-66.707031 13.203125-91.058593 36.953125-.878907-.429687-1.757813-.816406-2.582032-1.210937 10.824219-12.738282 19.601563-27.078126 26.019532-42.511719 1.855468-4.484375-.273438-9.621094-4.753907-11.476563-1.699219-.703125-3.578125-.855468-5.371093-.433594-77.777344 18.378907-155.730469-29.773437-174.109376-107.550781-7-29.640625-4.476562-60.730469 7.21875-88.847656 1.851563-4.484375-.277343-9.617187-4.757812-11.472656-1.699219-.703125-3.570312-.855469-5.359375-.4375-87.285156 20.316406-141.570313 107.542969-121.253906 194.828125 13.851562 59.503906 59.949219 106.183594 119.277343 120.777344-22.929687 3.210937-43.308593 16.285156-55.785156 35.789062-37.996094 7.859375-62.421875 45.035156-54.5625 83.03125 6.726563 32.511719 35.292969 55.875 68.492188 56.019531h289.804687c1.371094 0 2.714844-.085937 4.460938-.199219l1.132812.0625c1.054688.070313 2.109375.140626 3.1875.140626 72.753907 0 131.730469-58.980469 131.730469-131.730469 0-72.753907-58.976562-131.730469-131.730469-131.730469zm-362.589843-70.546875c.589843-60.527344 38.851562-114.273437 95.855468-134.636719-25.226562 85.996094 24.035156 176.15625 110.03125 201.378906 21.273438 6.242188 43.605469 8.058594 65.609375 5.332032-5.648437 10.097656-12.492187 19.476562-20.382812 27.9375-43.320313-11.046875-88.734375 7.78125-111.53125 46.234375-78.542969-2.722657-140.542969-67.660157-139.632813-146.246094zm362.589843 316.441406c-.667969 0-1.316406-.050781-1.976562-.097656l-2.105469-.113281c-.5-.035156-1-.023438-1.492188.042968-1.0625.082032-2.125.167969-3.207031.167969h-289.804687c-29.101563-.210937-52.515625-23.976562-52.304688-53.074219.191406-25.996093 19.308594-47.964843 45.023438-51.746093 2.714844-.378907 5.09375-2.003907 6.4375-4.390625 12.699218-23.007813 38.777344-35.207032 64.574218-30.210938-1.140624 5.28125-1.855468 10.648438-2.140624 16.042969-.246094 4.84375 3.484374 8.96875 8.328124 9.210937.011719.003907.019532.003907.03125.003907h.421876c4.691406.003906 8.5625-3.683594 8.78125-8.371094 2.199218-46.023437 41.289062-81.550781 87.3125-79.355469 24.132812 1.152344 46.585937 12.710938 61.542968 31.6875 3 3.808594 8.523438 4.464844 12.332032 1.460938 3.8125-3 4.464843-8.523438 1.464843-12.332032-5.5-6.882812-11.863281-13.027343-18.933593-18.277343 20.769531-18.71875 47.753906-29.046875 75.714843-28.980469 63.054688 0 114.167969 51.113281 114.167969 114.167969 0 63.050781-51.113281 114.164062-114.167969 114.164062zm0 0"/></svg>