<?xml version="1.0" encoding="iso-8859-1"?>
<!-- Generator: Adobe Illustrator 19.0.0, SVG Export Plug-In . SVG Version: 6.00 Build 0)  -->
<svg version="1.1" id="Capa_1" xmlns="http://www.w3.org/2000/svg" xmlns:xlink="http://www.w3.org/1999/xlink" x="0px" y="0px"
	 viewBox="0 0 480 480" style="enable-background:new 0 0 480 480;" xml:space="preserve">
<g>
	<g>
		<path d="M111.632,240.198c5.392-6.917,8.335-15.428,8.368-24.198c0-22.091-17.909-40-40-40s-40,17.909-40,40
			c0.033,8.77,2.976,17.281,8.368,24.198C21.117,242.256,0.044,264.945,0,292.273V360c-0.001,4.417,3.579,7.999,7.996,8
			c0.001,0,0.003,0,0.004,0h24v104c-0.001,4.417,3.579,7.999,7.996,8c0.001,0,0.003,0,0.004,0h80c4.417,0.001,7.999-3.579,8-7.996
			c0-0.001,0-0.003,0-0.004V368h24c4.417,0.001,7.999-3.579,8-7.996c0-0.001,0-0.003,0-0.004v-67.727
			C159.956,264.945,138.883,242.256,111.632,240.198z M80,192c13.255,0,24,10.745,24,24s-10.745,24-24,24s-24-10.745-24-24
			C56.014,202.751,66.751,192.014,80,192z M144,352h-16v-72h-16v184H88V360H72v104H48V280H32v72H16v-59.727
			c0.023-20.024,16.25-36.25,36.273-36.273h55.453c20.024,0.023,36.25,16.25,36.273,36.273V352z"/>
	</g>
</g>
<g>
	<g>
		<path d="M440.004,96c-0.001,0-0.003,0-0.004,0H264c-4.417-0.001-7.999,3.579-8,7.996c0,0.001,0,0.003,0,0.004v128
			c-0.001,4.417,3.579,7.999,7.996,8c0.001,0,0.003,0,0.004,0h176c4.417,0.001,7.999-3.579,8-7.996c0-0.001,0-0.003,0-0.004V104
			C448.001,99.583,444.421,96.001,440.004,96z M376,224h-48v-14.109c0.013-12.819,10.399-23.21,23.219-23.227h1.563
			c12.819,0.017,23.206,10.407,23.219,23.227V224z M338.668,157.336c-0.002-7.363,5.965-13.334,13.328-13.336
			c7.363-0.002,13.334,5.965,13.336,13.328s-5.965,13.334-13.328,13.336c-0.001,0-0.003,0-0.004,0
			C344.643,170.654,338.68,164.693,338.668,157.336z M432,224h-40v-14.109c-0.024-13.416-6.918-25.885-18.267-33.041
			c10.88-12.003,9.969-30.553-2.034-41.433s-30.553-9.969-41.433,2.034c-10.132,11.179-10.132,28.22,0,39.398
			c-11.349,7.156-18.242,19.625-18.267,33.041V224h-40V112h160V224z"/>
	</g>
</g>
<g>
	<g>
		<rect x="288" y="256" width="79.544" height="16"/>
	</g>
</g>
<g>
	<g>
		<rect x="384" y="256" width="32" height="16"/>
	</g>
</g>
<g>
	<g>
		<rect x="288" y="288" width="127.28" height="16"/>
	</g>
</g>
<g>
	<g>
		<rect x="288" y="320" width="39.776" height="16"/>
	</g>
</g>
<g>
	<g>
		<rect x="344" y="320" width="72" height="16"/>
	</g>
</g>
<g>
	<g>
		<path d="M472.004,48c-0.001,0-0.003,0-0.004,0h-79.718l15.124-36.969c1.672-4.091-0.288-8.764-4.38-10.436
			C402.066,0.202,401.038,0,400,0h-96c-4.42,0.001-8.002,3.585-8.001,8.005c0,1.038,0.202,2.066,0.595,3.026L311.718,48H232
			c-4.417-0.001-7.999,3.579-8,7.996c0,0.001,0,0.003,0,0.004v304c-0.001,4.417,3.579,7.999,7.996,8c0.001,0,0.003,0,0.004,0h240
			c4.417,0.001,7.999-3.579,8-7.996c0-0.001,0-0.003,0-0.004V56C480.001,51.583,476.421,48.001,472.004,48z M388.082,16l-19.637,48
			h-32.891l-19.637-48H388.082z M464,352H240V64h78.264l4.513,11.031c1.231,3.007,4.158,4.971,7.407,4.969h43.633
			c3.249,0.002,6.176-1.962,7.406-4.969L385.736,64H464V352z"/>
	</g>
</g>
<g>
	<g>
		<path d="M352,28c-6.627,0-12,5.373-12,12c0.007,6.624,5.376,11.993,12,12c6.627,0,12-5.373,12-12S358.627,28,352,28z"/>
	</g>
</g>
<g>
	<g>
		<rect x="88" y="272" width="16" height="16"/>
	</g>
</g>
<g>
	<g>
		<path d="M200.004,152c-0.001,0-0.003,0-0.004,0h-32v16h14.186l-52.167,58.688l11.961,10.625L192,181.041V192h16v-32
			C208.001,155.583,204.421,152.001,200.004,152z"/>
	</g>
</g>
<g>
</g>
<g>
</g>
<g>
</g>
<g>
</g>
<g>
</g>
<g>
</g>
<g>
</g>
<g>
</g>
<g>
</g>
<g>
</g>
<g>
</g>
<g>
</g>
<g>
</g>
<g>
</g>
<g>
</g>
</svg>
