<?xml version="1.0" encoding="iso-8859-1"?>
<!-- Generator: Adobe Illustrator 19.0.0, SVG Export Plug-In . SVG Version: 6.00 Build 0)  -->
<svg version="1.1" id="Layer_1" xmlns="http://www.w3.org/2000/svg" xmlns:xlink="http://www.w3.org/1999/xlink" x="0px" y="0px"
	 viewBox="0 0 512 512" style="enable-background:new 0 0 512 512;" xml:space="preserve">
<g>
	<g>
		<path d="M484.123,394.095h-21.84v-35.472c0-15.372-12.505-27.878-27.878-27.878h-16.444v-35.471
			c0-15.372-12.505-27.878-27.878-27.878H121.917c-15.372,0-27.878,12.505-27.878,27.878v35.471H77.596
			c-15.372,0-27.878,12.505-27.878,27.878v35.472h-21.84C12.505,394.095,0,406.6,0,421.973v44.706c0,5.102,4.134,9.236,9.236,9.236
			h493.529c5.102,0,9.236-4.134,9.236-9.236v-44.706C512,406.6,499.495,394.095,484.123,394.095z M112.51,295.276
			c0-5.187,4.22-9.407,9.407-9.407h268.166c5.187,0,9.407,4.22,9.407,9.407v35.471H112.51V295.276z M68.189,358.623
			c0-5.187,4.22-9.407,9.407-9.407h25.68h305.451h25.68c5.187,0,9.407,4.22,9.407,9.407v35.472H68.189V358.623z M493.529,457.443
			H18.471v-35.471c0-5.187,4.22-9.407,9.407-9.407h31.076h394.093h31.076c5.187,0,9.407,4.22,9.407,9.407V457.443z"/>
	</g>
</g>
<g>
	<g>
		<path d="M364.245,139.532c-1.15-3.262-4.028-5.61-7.455-6.081c-3.441-0.47-6.832,1.016-8.817,3.848l-9.91,14.133
			c-0.261-7.217-1.103-15.065-2.692-23.064c-4.03-20.318-14.289-49.292-40.267-71.946c-9.079-7.917-19.505-14.495-30.988-19.552
			c-2.447-1.079-5.242-1.044-7.658,0.096c-2.419,1.139-4.225,3.269-4.951,5.841c-8.238,29.12-21.243,53.872-38.654,73.566
			c-7.52,8.508-14.815,14.971-21.871,21.222c-13.739,12.175-26.717,23.675-34.498,45.405c-3.534,9.872-8.759,29.884-4.048,52.983
			c1.021,4.998,5.9,8.227,10.897,7.204c4.998-1.02,8.223-5.897,7.204-10.896c-3.814-18.7,0.456-35.009,3.341-43.066
			c6.183-17.271,16.41-26.334,29.357-37.805c7.121-6.31,15.193-13.462,23.46-22.812c17.085-19.326,30.289-42.89,39.334-70.167
			c6.125,3.436,11.797,7.419,16.94,11.904c41.756,36.41,38.404,94.799,34.529,104.574c-0.339,0.856-5.481,13.612-5.898,14.646
			c-1.74,4.2-0.156,9.098,3.806,11.461c4.157,2.478,9.516,1.329,12.291-2.631l24.407-34.807c5.152,21.609,7.882,51.281-3.969,79.38
			c-1.983,4.7,0.22,10.117,4.919,12.099c1.172,0.494,2.388,0.729,3.586,0.729c3.602,0,7.025-2.122,8.513-5.648
			C383.2,207.348,372.33,162.473,364.245,139.532z"/>
	</g>
</g>
<g>
	<g>
		<path d="M228.197,188.998c-3.166-4-8.976-4.673-12.973-1.508c-5.048,3.996-14.27,12.73-19.329,26.334
			c-3.857,10.367-4.821,20.831-2.948,31.986c0.757,4.512,4.668,7.707,9.098,7.707c0.507,0,1.022-0.042,1.54-0.128
			c5.03-0.845,8.423-5.608,7.578-10.638c-1.341-7.987-0.693-15.133,2.043-22.487c3.495-9.393,9.947-15.492,13.483-18.293
			C230.688,198.805,231.363,192.996,228.197,188.998z"/>
	</g>
</g>
<g>
</g>
<g>
</g>
<g>
</g>
<g>
</g>
<g>
</g>
<g>
</g>
<g>
</g>
<g>
</g>
<g>
</g>
<g>
</g>
<g>
</g>
<g>
</g>
<g>
</g>
<g>
</g>
<g>
</g>
</svg>
