<?xml version="1.0" encoding="iso-8859-1"?>
<!-- Generator: Adobe Illustrator 19.0.0, SVG Export Plug-In . SVG Version: 6.00 Build 0)  -->
<svg version="1.1" id="Capa_1" xmlns="http://www.w3.org/2000/svg" xmlns:xlink="http://www.w3.org/1999/xlink" x="0px" y="0px"
	 viewBox="0 0 512 512" style="enable-background:new 0 0 512 512;" xml:space="preserve">
<g>
	<g>
		<path d="M348.13,311.89l23.51-109.26c4.11-19.1,1.57-39.25-7.16-56.73L300.75,18.33C295.68,7.18,284.56,0,272.28,0
			c-0.43,0-0.85,0.01-1.28,0.03v15.02v16.23v100.69c2.77-0.63,5.66-0.97,8.62-0.97c21.3,0,38.63,17.33,38.63,38.62v50.18h-30v-50.18
			c0-4.75-3.87-8.62-8.63-8.62c-4.75,0-8.62,3.87-8.62,8.62v141.51v35.81v23.31l35.06,41.66l10.65-10.64l10.65-10.64l31.6-31.57
			l10.67-10.67l10.69-10.67C366.8,326.87,355.46,317.77,348.13,311.89z"/>
	</g>
</g>
<g>
	<g>
		<path d="M403.84,356.62l-10.68,10.67l-10.67,10.66l-35.74,35.72l-10.66,10.64l-10.65,10.65l19.67,23.38l10.65-10.65l10.65-10.65
			l39.93-39.93h0.01l10.66-10.67l10.67-10.67C419.58,369.26,411.56,362.82,403.84,356.62z"/>
	</g>
</g>
<g>
	<g>
		<path d="M239.72,0c-12.28,0-23.41,7.18-28.48,18.33L147.52,145.9c-8.73,17.48-11.27,37.63-7.16,56.73l23.51,109.26
			c-7.38,5.93-18.82,15.11-32.47,26.07l10.69,10.65l10.7,10.66l31.71,31.61l10.66,10.62l10.66,10.63L241,370.26v-23.31v-35.82
			V169.62c0-4.75-3.87-8.62-8.62-8.62c-4.76,0-8.63,3.87-8.63,8.62v50.18h-30v-50.18c0-21.29,17.33-38.62,38.63-38.62
			c2.96,0,5.85,0.34,8.62,0.97V31.28V15.05V0.03C240.57,0.01,240.15,0,239.72,0z"/>
	</g>
</g>
<g>
	<g>
		<path d="M126.45,459.95l-43.94-44.24L71.88,405l-10.63-10.7C37.64,413.265,15.284,431.237,0,443.547V512h121.898l25.772-30.67
			L126.45,459.95z"/>
	</g>
</g>
<g>
	<g>
		<path d="M175.79,424.55l-10.66-10.63l-35.88-35.76l-10.69-10.65l-10.69-10.66c-7.49,6.01-15.26,12.25-23.1,18.56l10.62,10.7
			l10.63,10.7l39.8,40.09l10.62,10.68l10.61,10.69l19.4-23.09L175.79,424.55z"/>
	</g>
</g>
<g>
	<g>
		<path d="M451.21,394.67l-86.71,86.71L390.404,512H512v-68.643C496.928,431.215,474.594,413.46,451.21,394.67z"/>
	</g>
</g>
<g>
</g>
<g>
</g>
<g>
</g>
<g>
</g>
<g>
</g>
<g>
</g>
<g>
</g>
<g>
</g>
<g>
</g>
<g>
</g>
<g>
</g>
<g>
</g>
<g>
</g>
<g>
</g>
<g>
</g>
</svg>
